%TF.GenerationSoftware,KiCad,Pcbnew,5.1.10-88a1d61d58~88~ubuntu18.04.1*%
%TF.CreationDate,2021-11-19T11:59:42+11:00*%
%TF.ProjectId,distanceSensorUltrasonicLCD,64697374-616e-4636-9553-656e736f7255,1.0*%
%TF.SameCoordinates,Original*%
%TF.FileFunction,Copper,L2,Bot*%
%TF.FilePolarity,Positive*%
%FSLAX46Y46*%
G04 Gerber Fmt 4.6, Leading zero omitted, Abs format (unit mm)*
G04 Created by KiCad (PCBNEW 5.1.10-88a1d61d58~88~ubuntu18.04.1) date 2021-11-19 11:59:42*
%MOMM*%
%LPD*%
G01*
G04 APERTURE LIST*
%TA.AperFunction,ComponentPad*%
%ADD10R,1.268000X1.268000*%
%TD*%
%TA.AperFunction,ComponentPad*%
%ADD11C,1.268000*%
%TD*%
%TA.AperFunction,ComponentPad*%
%ADD12R,1.800000X2.600000*%
%TD*%
%TA.AperFunction,ComponentPad*%
%ADD13O,1.800000X2.600000*%
%TD*%
%TA.AperFunction,ComponentPad*%
%ADD14C,3.000000*%
%TD*%
%TA.AperFunction,ComponentPad*%
%ADD15C,1.530000*%
%TD*%
%TA.AperFunction,ComponentPad*%
%ADD16C,1.524000*%
%TD*%
%TA.AperFunction,ComponentPad*%
%ADD17C,1.500000*%
%TD*%
%TA.AperFunction,ComponentPad*%
%ADD18R,3.000000X3.000000*%
%TD*%
%TA.AperFunction,ComponentPad*%
%ADD19R,1.700000X1.700000*%
%TD*%
%TA.AperFunction,ComponentPad*%
%ADD20O,1.700000X1.700000*%
%TD*%
%TA.AperFunction,Conductor*%
%ADD21C,0.254000*%
%TD*%
%TA.AperFunction,Conductor*%
%ADD22C,0.250000*%
%TD*%
%TA.AperFunction,Conductor*%
%ADD23C,0.100000*%
%TD*%
G04 APERTURE END LIST*
D10*
%TO.P,RV1,1*%
%TO.N,VCC*%
X108458000Y-134620000D03*
D11*
%TO.P,RV1,2*%
%TO.N,Net-(RV1-Pad2)*%
X110998000Y-134620000D03*
%TO.P,RV1,3*%
%TO.N,GND*%
X113538000Y-134620000D03*
%TD*%
D12*
%TO.P,U3,1*%
%TO.N,GND*%
X105918000Y-86106000D03*
D13*
%TO.P,U3,2*%
%TO.N,VCC*%
X108458000Y-86106000D03*
%TO.P,U3,3*%
%TO.N,Net-(RV1-Pad2)*%
X110998000Y-86106000D03*
%TO.P,U3,4*%
%TO.N,Net-(FTDI1-Pad29)*%
X113538000Y-86106000D03*
%TO.P,U3,5*%
%TO.N,GND*%
X116078000Y-86106000D03*
%TO.P,U3,6*%
%TO.N,Net-(FTDI1-Pad30)*%
X118618000Y-86106000D03*
%TO.P,U3,7*%
%TO.N,Net-(U3-Pad7)*%
X121158000Y-86106000D03*
%TO.P,U3,8*%
%TO.N,Net-(U3-Pad8)*%
X123698000Y-86106000D03*
%TO.P,U3,9*%
%TO.N,Net-(U3-Pad9)*%
X126238000Y-86106000D03*
%TO.P,U3,10*%
%TO.N,Net-(U3-Pad10)*%
X128778000Y-86106000D03*
%TO.P,U3,11*%
%TO.N,Net-(FTDI1-Pad13)*%
X131318000Y-86106000D03*
%TO.P,U3,12*%
%TO.N,Net-(FTDI1-Pad14)*%
X133858000Y-86106000D03*
%TO.P,U3,13*%
%TO.N,Net-(FTDI1-Pad15)*%
X136398000Y-86106000D03*
%TO.P,U3,14*%
%TO.N,Net-(FTDI1-Pad16)*%
X138938000Y-86106000D03*
%TO.P,U3,15*%
%TO.N,VCC*%
X141478000Y-86106000D03*
%TO.P,U3,16*%
%TO.N,GND*%
X144018000Y-86106000D03*
D14*
%TO.P,U3,*%
%TO.N,*%
X100418900Y-86106000D03*
X100418900Y-117106700D03*
X175417480Y-117106700D03*
X175418000Y-86106000D03*
%TD*%
D15*
%TO.P,U2,2*%
%TO.N,Net-(FTDI1-Pad28)*%
X159512000Y-143764000D03*
%TO.P,U2,3*%
%TO.N,Net-(FTDI1-Pad27)*%
X162052000Y-143764000D03*
%TO.P,U2,4*%
%TO.N,GND*%
X164592000Y-143764000D03*
%TO.P,U2,1*%
%TO.N,VCC*%
X156972000Y-143764000D03*
%TD*%
D16*
%TO.P,FTDI1,1*%
%TO.N,Net-(FTDI1-Pad1)*%
X113563400Y-78232000D03*
%TO.P,FTDI1,2*%
%TO.N,Net-(FTDI1-Pad2)*%
X113563400Y-75692000D03*
%TO.P,FTDI1,3*%
%TO.N,Net-(FTDI1-Pad3)*%
X113563400Y-73152000D03*
%TO.P,FTDI1,4*%
%TO.N,Net-(FTDI1-Pad4)*%
X113563400Y-70612000D03*
%TO.P,FTDI1,5*%
%TO.N,N/C*%
X113563400Y-68072000D03*
%TO.P,FTDI1,6*%
%TO.N,Net-(FTDI1-Pad6)*%
X113563400Y-65532000D03*
%TO.P,FTDI1,7*%
%TO.N,Net-(FTDI1-Pad7)*%
X116103400Y-79502000D03*
%TO.P,FTDI1,8*%
%TO.N,Net-(FTDI1-Pad8)*%
X118643400Y-79502000D03*
%TO.P,FTDI1,9*%
%TO.N,Net-(FTDI1-Pad9)*%
X121183400Y-79502000D03*
%TO.P,FTDI1,10*%
%TO.N,Net-(FTDI1-Pad10)*%
X123723400Y-79502000D03*
%TO.P,FTDI1,11*%
%TO.N,Net-(FTDI1-Pad11)*%
X126263400Y-79502000D03*
%TO.P,FTDI1,12*%
%TO.N,Net-(FTDI1-Pad12)*%
X128803400Y-79502000D03*
%TO.P,FTDI1,13*%
%TO.N,Net-(FTDI1-Pad13)*%
X131343400Y-79502000D03*
%TO.P,FTDI1,14*%
%TO.N,Net-(FTDI1-Pad14)*%
X133883400Y-79502000D03*
%TO.P,FTDI1,15*%
%TO.N,Net-(FTDI1-Pad15)*%
X136423400Y-79502000D03*
%TO.P,FTDI1,16*%
%TO.N,Net-(FTDI1-Pad16)*%
X138963400Y-79502000D03*
%TO.P,FTDI1,17*%
%TO.N,Net-(FTDI1-Pad17)*%
X141503400Y-79502000D03*
%TO.P,FTDI1,18*%
%TO.N,Net-(FTDI1-Pad18)*%
X144043400Y-79502000D03*
%TO.P,FTDI1,19*%
%TO.N,Net-(FTDI1-Pad19)*%
X116103400Y-64262000D03*
%TO.P,FTDI1,20*%
%TO.N,GND*%
X118643400Y-64262000D03*
%TO.P,FTDI1,21*%
%TO.N,Net-(FTDI1-Pad21)*%
X121183400Y-64262000D03*
%TO.P,FTDI1,22*%
%TO.N,VCC*%
X123723400Y-64262000D03*
%TO.P,FTDI1,23*%
%TO.N,Net-(FTDI1-Pad23)*%
X126263400Y-64262000D03*
%TO.P,FTDI1,24*%
%TO.N,Net-(FTDI1-Pad24)*%
X128803400Y-64262000D03*
%TO.P,FTDI1,25*%
%TO.N,Net-(FTDI1-Pad25)*%
X131343400Y-64262000D03*
%TO.P,FTDI1,26*%
%TO.N,Net-(FTDI1-Pad26)*%
X133883400Y-64262000D03*
%TO.P,FTDI1,27*%
%TO.N,Net-(FTDI1-Pad27)*%
X136423400Y-64262000D03*
%TO.P,FTDI1,28*%
%TO.N,Net-(FTDI1-Pad28)*%
X138963400Y-64262000D03*
%TO.P,FTDI1,29*%
%TO.N,Net-(FTDI1-Pad29)*%
X141503400Y-64262000D03*
%TO.P,FTDI1,30*%
%TO.N,Net-(FTDI1-Pad30)*%
X144043400Y-64262000D03*
D17*
%TO.P,FTDI1,31*%
%TO.N,N/C*%
X124866400Y-67183000D03*
%TO.P,FTDI1,32*%
X127406400Y-67183000D03*
%TO.P,FTDI1,34*%
X135280400Y-67183000D03*
%TO.P,FTDI1,35*%
X137820400Y-67183000D03*
%TD*%
D14*
%TO.P,BT1,2*%
%TO.N,GND*%
X198120000Y-96520000D03*
D18*
%TO.P,BT1,1*%
%TO.N,Net-(BT1-Pad1)*%
X210820000Y-96520000D03*
%TD*%
D19*
%TO.P,SW1,1*%
%TO.N,Net-(FTDI1-Pad19)*%
X210820000Y-81280000D03*
D20*
%TO.P,SW1,2*%
%TO.N,Net-(BT1-Pad1)*%
X210820000Y-83820000D03*
%TD*%
D21*
%TO.N,Net-(FTDI1-Pad27)*%
X158496000Y-58166000D02*
X162052000Y-61722000D01*
D22*
X136423400Y-61188600D02*
X139446000Y-58166000D01*
X136423400Y-64262000D02*
X136423400Y-61188600D01*
D21*
X139446000Y-58166000D02*
X158496000Y-58166000D01*
X162052000Y-143764000D02*
X162052000Y-137922000D01*
X162052000Y-61722000D02*
X162052000Y-137922000D01*
X162052000Y-137922000D02*
X162052000Y-138938000D01*
%TO.N,GND*%
X188976000Y-83312000D02*
X188722000Y-83312000D01*
D22*
X116078000Y-99110800D02*
X116128800Y-99060000D01*
%TD*%
D21*
%TO.N,GND*%
X226441000Y-155376409D02*
X89281000Y-154362287D01*
X89281000Y-149639872D01*
X91745000Y-149639872D01*
X91745000Y-150080128D01*
X91830890Y-150511925D01*
X91999369Y-150918669D01*
X92243962Y-151284729D01*
X92555271Y-151596038D01*
X92921331Y-151840631D01*
X93328075Y-152009110D01*
X93759872Y-152095000D01*
X94200128Y-152095000D01*
X94631925Y-152009110D01*
X95038669Y-151840631D01*
X95404729Y-151596038D01*
X95716038Y-151284729D01*
X95960631Y-150918669D01*
X96129110Y-150511925D01*
X96215000Y-150080128D01*
X96215000Y-149639872D01*
X173025000Y-149639872D01*
X173025000Y-150080128D01*
X173110890Y-150511925D01*
X173279369Y-150918669D01*
X173523962Y-151284729D01*
X173835271Y-151596038D01*
X174201331Y-151840631D01*
X174608075Y-152009110D01*
X175039872Y-152095000D01*
X175480128Y-152095000D01*
X175911925Y-152009110D01*
X176318669Y-151840631D01*
X176684729Y-151596038D01*
X176996038Y-151284729D01*
X177240631Y-150918669D01*
X177409110Y-150511925D01*
X177495000Y-150080128D01*
X177495000Y-149639872D01*
X177409110Y-149208075D01*
X177240631Y-148801331D01*
X176996038Y-148435271D01*
X176684729Y-148123962D01*
X176318669Y-147879369D01*
X175911925Y-147710890D01*
X175480128Y-147625000D01*
X175039872Y-147625000D01*
X174608075Y-147710890D01*
X174201331Y-147879369D01*
X173835271Y-148123962D01*
X173523962Y-148435271D01*
X173279369Y-148801331D01*
X173110890Y-149208075D01*
X173025000Y-149639872D01*
X96215000Y-149639872D01*
X96129110Y-149208075D01*
X95960631Y-148801331D01*
X95716038Y-148435271D01*
X95404729Y-148123962D01*
X95038669Y-147879369D01*
X94631925Y-147710890D01*
X94200128Y-147625000D01*
X93759872Y-147625000D01*
X93328075Y-147710890D01*
X92921331Y-147879369D01*
X92555271Y-148123962D01*
X92243962Y-148435271D01*
X91999369Y-148801331D01*
X91830890Y-149208075D01*
X91745000Y-149639872D01*
X89281000Y-149639872D01*
X89281000Y-133986000D01*
X107185928Y-133986000D01*
X107185928Y-135254000D01*
X107198188Y-135378482D01*
X107234498Y-135498180D01*
X107293463Y-135608494D01*
X107372815Y-135705185D01*
X107469506Y-135784537D01*
X107579820Y-135843502D01*
X107699518Y-135879812D01*
X107824000Y-135892072D01*
X109092000Y-135892072D01*
X109216482Y-135879812D01*
X109336180Y-135843502D01*
X109446494Y-135784537D01*
X109543185Y-135705185D01*
X109622537Y-135608494D01*
X109681502Y-135498180D01*
X109717812Y-135378482D01*
X109730072Y-135254000D01*
X109730072Y-134750375D01*
X109777767Y-134990154D01*
X109873427Y-135221097D01*
X110012303Y-135428940D01*
X110189060Y-135605697D01*
X110396903Y-135744573D01*
X110627846Y-135840233D01*
X110873014Y-135889000D01*
X111122986Y-135889000D01*
X111368154Y-135840233D01*
X111599097Y-135744573D01*
X111806940Y-135605697D01*
X111918552Y-135494085D01*
X112843520Y-135494085D01*
X112894963Y-135721129D01*
X113122138Y-135825422D01*
X113365295Y-135883391D01*
X113615089Y-135892808D01*
X113861920Y-135853312D01*
X114096303Y-135766420D01*
X114181037Y-135721129D01*
X114232480Y-135494085D01*
X113538000Y-134799605D01*
X112843520Y-135494085D01*
X111918552Y-135494085D01*
X111983697Y-135428940D01*
X112122573Y-135221097D01*
X112218233Y-134990154D01*
X112267000Y-134744986D01*
X112267000Y-134708388D01*
X112304688Y-134943920D01*
X112391580Y-135178303D01*
X112436871Y-135263037D01*
X112663915Y-135314480D01*
X113358395Y-134620000D01*
X113717605Y-134620000D01*
X114412085Y-135314480D01*
X114639129Y-135263037D01*
X114743422Y-135035862D01*
X114801391Y-134792705D01*
X114810808Y-134542911D01*
X114771312Y-134296080D01*
X114684420Y-134061697D01*
X114639129Y-133976963D01*
X114412085Y-133925520D01*
X113717605Y-134620000D01*
X113358395Y-134620000D01*
X112663915Y-133925520D01*
X112436871Y-133976963D01*
X112332578Y-134204138D01*
X112274609Y-134447295D01*
X112267000Y-134649130D01*
X112267000Y-134495014D01*
X112218233Y-134249846D01*
X112122573Y-134018903D01*
X111983697Y-133811060D01*
X111918552Y-133745915D01*
X112843520Y-133745915D01*
X113538000Y-134440395D01*
X114232480Y-133745915D01*
X114181037Y-133518871D01*
X113953862Y-133414578D01*
X113710705Y-133356609D01*
X113460911Y-133347192D01*
X113214080Y-133386688D01*
X112979697Y-133473580D01*
X112894963Y-133518871D01*
X112843520Y-133745915D01*
X111918552Y-133745915D01*
X111806940Y-133634303D01*
X111599097Y-133495427D01*
X111368154Y-133399767D01*
X111122986Y-133351000D01*
X110873014Y-133351000D01*
X110627846Y-133399767D01*
X110396903Y-133495427D01*
X110189060Y-133634303D01*
X110012303Y-133811060D01*
X109873427Y-134018903D01*
X109777767Y-134249846D01*
X109730072Y-134489625D01*
X109730072Y-133986000D01*
X109717812Y-133861518D01*
X109681502Y-133741820D01*
X109622537Y-133631506D01*
X109543185Y-133534815D01*
X109446494Y-133455463D01*
X109336180Y-133396498D01*
X109216482Y-133360188D01*
X109092000Y-133347928D01*
X107824000Y-133347928D01*
X107699518Y-133360188D01*
X107579820Y-133396498D01*
X107469506Y-133455463D01*
X107372815Y-133534815D01*
X107293463Y-133631506D01*
X107234498Y-133741820D01*
X107198188Y-133861518D01*
X107185928Y-133986000D01*
X89281000Y-133986000D01*
X89281000Y-116896421D01*
X98283900Y-116896421D01*
X98283900Y-117316979D01*
X98365947Y-117729456D01*
X98526888Y-118118002D01*
X98760537Y-118467683D01*
X99057917Y-118765063D01*
X99407598Y-118998712D01*
X99796144Y-119159653D01*
X100208621Y-119241700D01*
X100629179Y-119241700D01*
X101041656Y-119159653D01*
X101430202Y-118998712D01*
X101779883Y-118765063D01*
X102077263Y-118467683D01*
X102310912Y-118118002D01*
X102471853Y-117729456D01*
X102553900Y-117316979D01*
X102553900Y-116896421D01*
X102471853Y-116483944D01*
X102310912Y-116095398D01*
X102077263Y-115745717D01*
X101779883Y-115448337D01*
X101430202Y-115214688D01*
X101041656Y-115053747D01*
X100629179Y-114971700D01*
X100208621Y-114971700D01*
X99796144Y-115053747D01*
X99407598Y-115214688D01*
X99057917Y-115448337D01*
X98760537Y-115745717D01*
X98526888Y-116095398D01*
X98365947Y-116483944D01*
X98283900Y-116896421D01*
X89281000Y-116896421D01*
X89281000Y-85895721D01*
X98283900Y-85895721D01*
X98283900Y-86316279D01*
X98365947Y-86728756D01*
X98526888Y-87117302D01*
X98760537Y-87466983D01*
X99057917Y-87764363D01*
X99407598Y-87998012D01*
X99796144Y-88158953D01*
X100208621Y-88241000D01*
X100629179Y-88241000D01*
X101041656Y-88158953D01*
X101430202Y-87998012D01*
X101779883Y-87764363D01*
X102077263Y-87466983D01*
X102118010Y-87406000D01*
X104379928Y-87406000D01*
X104392188Y-87530482D01*
X104428498Y-87650180D01*
X104487463Y-87760494D01*
X104566815Y-87857185D01*
X104663506Y-87936537D01*
X104773820Y-87995502D01*
X104893518Y-88031812D01*
X105018000Y-88044072D01*
X105632250Y-88041000D01*
X105791000Y-87882250D01*
X105791000Y-86233000D01*
X104541750Y-86233000D01*
X104383000Y-86391750D01*
X104379928Y-87406000D01*
X102118010Y-87406000D01*
X102310912Y-87117302D01*
X102471853Y-86728756D01*
X102553900Y-86316279D01*
X102553900Y-85895721D01*
X102471853Y-85483244D01*
X102310912Y-85094698D01*
X102118011Y-84806000D01*
X104379928Y-84806000D01*
X104383000Y-85820250D01*
X104541750Y-85979000D01*
X105791000Y-85979000D01*
X105791000Y-84329750D01*
X106045000Y-84329750D01*
X106045000Y-85979000D01*
X106065000Y-85979000D01*
X106065000Y-86233000D01*
X106045000Y-86233000D01*
X106045000Y-87882250D01*
X106203750Y-88041000D01*
X106818000Y-88044072D01*
X106942482Y-88031812D01*
X107062180Y-87995502D01*
X107172494Y-87936537D01*
X107269185Y-87857185D01*
X107348537Y-87760494D01*
X107407502Y-87650180D01*
X107412495Y-87633720D01*
X107601074Y-87788481D01*
X107867740Y-87931017D01*
X108157088Y-88018790D01*
X108458000Y-88048427D01*
X108758913Y-88018790D01*
X109048261Y-87931017D01*
X109314927Y-87788481D01*
X109548661Y-87596661D01*
X109728000Y-87378135D01*
X109907339Y-87596661D01*
X110141074Y-87788481D01*
X110407740Y-87931017D01*
X110697088Y-88018790D01*
X110998000Y-88048427D01*
X111298913Y-88018790D01*
X111588261Y-87931017D01*
X111854927Y-87788481D01*
X112088661Y-87596661D01*
X112268000Y-87378135D01*
X112447339Y-87596661D01*
X112681074Y-87788481D01*
X112947740Y-87931017D01*
X113237088Y-88018790D01*
X113538000Y-88048427D01*
X113838913Y-88018790D01*
X114128261Y-87931017D01*
X114394927Y-87788481D01*
X114628661Y-87596661D01*
X114812781Y-87372309D01*
X114872252Y-87464396D01*
X115082394Y-87681210D01*
X115330796Y-87852862D01*
X115607913Y-87972755D01*
X115713260Y-87997036D01*
X115951000Y-87876378D01*
X115951000Y-86233000D01*
X115931000Y-86233000D01*
X115931000Y-85979000D01*
X115951000Y-85979000D01*
X115951000Y-84335622D01*
X116205000Y-84335622D01*
X116205000Y-85979000D01*
X116225000Y-85979000D01*
X116225000Y-86233000D01*
X116205000Y-86233000D01*
X116205000Y-87876378D01*
X116442740Y-87997036D01*
X116548087Y-87972755D01*
X116825204Y-87852862D01*
X117073606Y-87681210D01*
X117283748Y-87464396D01*
X117343219Y-87372309D01*
X117527339Y-87596661D01*
X117761074Y-87788481D01*
X118027740Y-87931017D01*
X118317088Y-88018790D01*
X118618000Y-88048427D01*
X118918913Y-88018790D01*
X119208261Y-87931017D01*
X119474927Y-87788481D01*
X119708661Y-87596661D01*
X119888000Y-87378135D01*
X120067339Y-87596661D01*
X120301074Y-87788481D01*
X120567740Y-87931017D01*
X120857088Y-88018790D01*
X121158000Y-88048427D01*
X121458913Y-88018790D01*
X121748261Y-87931017D01*
X122014927Y-87788481D01*
X122248661Y-87596661D01*
X122428000Y-87378135D01*
X122607339Y-87596661D01*
X122841074Y-87788481D01*
X123107740Y-87931017D01*
X123397088Y-88018790D01*
X123698000Y-88048427D01*
X123998913Y-88018790D01*
X124288261Y-87931017D01*
X124554927Y-87788481D01*
X124788661Y-87596661D01*
X124968000Y-87378135D01*
X125147339Y-87596661D01*
X125381074Y-87788481D01*
X125647740Y-87931017D01*
X125937088Y-88018790D01*
X126238000Y-88048427D01*
X126538913Y-88018790D01*
X126828261Y-87931017D01*
X127094927Y-87788481D01*
X127328661Y-87596661D01*
X127508000Y-87378135D01*
X127687339Y-87596661D01*
X127921074Y-87788481D01*
X128187740Y-87931017D01*
X128477088Y-88018790D01*
X128778000Y-88048427D01*
X129078913Y-88018790D01*
X129368261Y-87931017D01*
X129634927Y-87788481D01*
X129868661Y-87596661D01*
X130048000Y-87378135D01*
X130227339Y-87596661D01*
X130461074Y-87788481D01*
X130727740Y-87931017D01*
X131017088Y-88018790D01*
X131318000Y-88048427D01*
X131618913Y-88018790D01*
X131908261Y-87931017D01*
X132174927Y-87788481D01*
X132408661Y-87596661D01*
X132588000Y-87378135D01*
X132767339Y-87596661D01*
X133001074Y-87788481D01*
X133267740Y-87931017D01*
X133557088Y-88018790D01*
X133858000Y-88048427D01*
X134158913Y-88018790D01*
X134448261Y-87931017D01*
X134714927Y-87788481D01*
X134948661Y-87596661D01*
X135128000Y-87378135D01*
X135307339Y-87596661D01*
X135541074Y-87788481D01*
X135807740Y-87931017D01*
X136097088Y-88018790D01*
X136398000Y-88048427D01*
X136698913Y-88018790D01*
X136988261Y-87931017D01*
X137254927Y-87788481D01*
X137488661Y-87596661D01*
X137668000Y-87378135D01*
X137847339Y-87596661D01*
X138081074Y-87788481D01*
X138347740Y-87931017D01*
X138637088Y-88018790D01*
X138938000Y-88048427D01*
X139238913Y-88018790D01*
X139528261Y-87931017D01*
X139794927Y-87788481D01*
X140028661Y-87596661D01*
X140208000Y-87378135D01*
X140387339Y-87596661D01*
X140621074Y-87788481D01*
X140887740Y-87931017D01*
X141177088Y-88018790D01*
X141478000Y-88048427D01*
X141778913Y-88018790D01*
X142068261Y-87931017D01*
X142334927Y-87788481D01*
X142568661Y-87596661D01*
X142752781Y-87372309D01*
X142812252Y-87464396D01*
X143022394Y-87681210D01*
X143270796Y-87852862D01*
X143547913Y-87972755D01*
X143653260Y-87997036D01*
X143891000Y-87876378D01*
X143891000Y-86233000D01*
X144145000Y-86233000D01*
X144145000Y-87876378D01*
X144382740Y-87997036D01*
X144488087Y-87972755D01*
X144765204Y-87852862D01*
X145013606Y-87681210D01*
X145223748Y-87464396D01*
X145387554Y-87210751D01*
X145498729Y-86930023D01*
X145553000Y-86633000D01*
X145553000Y-86233000D01*
X144145000Y-86233000D01*
X143891000Y-86233000D01*
X143871000Y-86233000D01*
X143871000Y-85979000D01*
X143891000Y-85979000D01*
X143891000Y-84335622D01*
X144145000Y-84335622D01*
X144145000Y-85979000D01*
X145553000Y-85979000D01*
X145553000Y-85579000D01*
X145498729Y-85281977D01*
X145387554Y-85001249D01*
X145223748Y-84747604D01*
X145013606Y-84530790D01*
X144765204Y-84359138D01*
X144488087Y-84239245D01*
X144382740Y-84214964D01*
X144145000Y-84335622D01*
X143891000Y-84335622D01*
X143653260Y-84214964D01*
X143547913Y-84239245D01*
X143270796Y-84359138D01*
X143022394Y-84530790D01*
X142812252Y-84747604D01*
X142752781Y-84839691D01*
X142568661Y-84615339D01*
X142334926Y-84423519D01*
X142068260Y-84280983D01*
X141778912Y-84193210D01*
X141478000Y-84163573D01*
X141177087Y-84193210D01*
X140887739Y-84280983D01*
X140621073Y-84423519D01*
X140387339Y-84615339D01*
X140208000Y-84833865D01*
X140028661Y-84615339D01*
X139794926Y-84423519D01*
X139528260Y-84280983D01*
X139238912Y-84193210D01*
X138938000Y-84163573D01*
X138637087Y-84193210D01*
X138347739Y-84280983D01*
X138081073Y-84423519D01*
X137847339Y-84615339D01*
X137668000Y-84833865D01*
X137488661Y-84615339D01*
X137254926Y-84423519D01*
X136988260Y-84280983D01*
X136698912Y-84193210D01*
X136398000Y-84163573D01*
X136097087Y-84193210D01*
X135807739Y-84280983D01*
X135541073Y-84423519D01*
X135307339Y-84615339D01*
X135128000Y-84833865D01*
X134948661Y-84615339D01*
X134714926Y-84423519D01*
X134448260Y-84280983D01*
X134158912Y-84193210D01*
X133858000Y-84163573D01*
X133557087Y-84193210D01*
X133267739Y-84280983D01*
X133001073Y-84423519D01*
X132767339Y-84615339D01*
X132588000Y-84833865D01*
X132408661Y-84615339D01*
X132174926Y-84423519D01*
X131908260Y-84280983D01*
X131618912Y-84193210D01*
X131318000Y-84163573D01*
X131017087Y-84193210D01*
X130727739Y-84280983D01*
X130461073Y-84423519D01*
X130227339Y-84615339D01*
X130048000Y-84833865D01*
X129868661Y-84615339D01*
X129634926Y-84423519D01*
X129368260Y-84280983D01*
X129078912Y-84193210D01*
X128778000Y-84163573D01*
X128477087Y-84193210D01*
X128187739Y-84280983D01*
X127921073Y-84423519D01*
X127687339Y-84615339D01*
X127508000Y-84833865D01*
X127328661Y-84615339D01*
X127094926Y-84423519D01*
X126828260Y-84280983D01*
X126538912Y-84193210D01*
X126238000Y-84163573D01*
X125937087Y-84193210D01*
X125647739Y-84280983D01*
X125381073Y-84423519D01*
X125147339Y-84615339D01*
X124968000Y-84833865D01*
X124788661Y-84615339D01*
X124554926Y-84423519D01*
X124288260Y-84280983D01*
X123998912Y-84193210D01*
X123698000Y-84163573D01*
X123397087Y-84193210D01*
X123107739Y-84280983D01*
X122841073Y-84423519D01*
X122607339Y-84615339D01*
X122428000Y-84833865D01*
X122248661Y-84615339D01*
X122014926Y-84423519D01*
X121748260Y-84280983D01*
X121458912Y-84193210D01*
X121158000Y-84163573D01*
X120857087Y-84193210D01*
X120567739Y-84280983D01*
X120301073Y-84423519D01*
X120067339Y-84615339D01*
X119888000Y-84833865D01*
X119708661Y-84615339D01*
X119474926Y-84423519D01*
X119208260Y-84280983D01*
X118918912Y-84193210D01*
X118618000Y-84163573D01*
X118317087Y-84193210D01*
X118027739Y-84280983D01*
X117761073Y-84423519D01*
X117527339Y-84615339D01*
X117343219Y-84839692D01*
X117283748Y-84747604D01*
X117073606Y-84530790D01*
X116825204Y-84359138D01*
X116548087Y-84239245D01*
X116442740Y-84214964D01*
X116205000Y-84335622D01*
X115951000Y-84335622D01*
X115713260Y-84214964D01*
X115607913Y-84239245D01*
X115330796Y-84359138D01*
X115082394Y-84530790D01*
X114872252Y-84747604D01*
X114812781Y-84839691D01*
X114628661Y-84615339D01*
X114394926Y-84423519D01*
X114128260Y-84280983D01*
X113838912Y-84193210D01*
X113538000Y-84163573D01*
X113237087Y-84193210D01*
X112947739Y-84280983D01*
X112681073Y-84423519D01*
X112447339Y-84615339D01*
X112268000Y-84833865D01*
X112088661Y-84615339D01*
X111854926Y-84423519D01*
X111588260Y-84280983D01*
X111298912Y-84193210D01*
X110998000Y-84163573D01*
X110697087Y-84193210D01*
X110407739Y-84280983D01*
X110141073Y-84423519D01*
X109907339Y-84615339D01*
X109728000Y-84833865D01*
X109548661Y-84615339D01*
X109314926Y-84423519D01*
X109048260Y-84280983D01*
X108758912Y-84193210D01*
X108458000Y-84163573D01*
X108157087Y-84193210D01*
X107867739Y-84280983D01*
X107601073Y-84423519D01*
X107412495Y-84578280D01*
X107407502Y-84561820D01*
X107348537Y-84451506D01*
X107269185Y-84354815D01*
X107172494Y-84275463D01*
X107062180Y-84216498D01*
X106942482Y-84180188D01*
X106818000Y-84167928D01*
X106203750Y-84171000D01*
X106045000Y-84329750D01*
X105791000Y-84329750D01*
X105632250Y-84171000D01*
X105018000Y-84167928D01*
X104893518Y-84180188D01*
X104773820Y-84216498D01*
X104663506Y-84275463D01*
X104566815Y-84354815D01*
X104487463Y-84451506D01*
X104428498Y-84561820D01*
X104392188Y-84681518D01*
X104379928Y-84806000D01*
X102118011Y-84806000D01*
X102077263Y-84745017D01*
X101779883Y-84447637D01*
X101430202Y-84213988D01*
X101041656Y-84053047D01*
X100629179Y-83971000D01*
X100208621Y-83971000D01*
X99796144Y-84053047D01*
X99407598Y-84213988D01*
X99057917Y-84447637D01*
X98760537Y-84745017D01*
X98526888Y-85094698D01*
X98365947Y-85483244D01*
X98283900Y-85895721D01*
X89281000Y-85895721D01*
X89281000Y-65394408D01*
X112166400Y-65394408D01*
X112166400Y-65669592D01*
X112220086Y-65939490D01*
X112325395Y-66193727D01*
X112478280Y-66422535D01*
X112672865Y-66617120D01*
X112901673Y-66770005D01*
X112978915Y-66802000D01*
X112901673Y-66833995D01*
X112672865Y-66986880D01*
X112478280Y-67181465D01*
X112325395Y-67410273D01*
X112220086Y-67664510D01*
X112166400Y-67934408D01*
X112166400Y-68209592D01*
X112220086Y-68479490D01*
X112325395Y-68733727D01*
X112478280Y-68962535D01*
X112672865Y-69157120D01*
X112901673Y-69310005D01*
X112978915Y-69342000D01*
X112901673Y-69373995D01*
X112672865Y-69526880D01*
X112478280Y-69721465D01*
X112325395Y-69950273D01*
X112220086Y-70204510D01*
X112166400Y-70474408D01*
X112166400Y-70749592D01*
X112220086Y-71019490D01*
X112325395Y-71273727D01*
X112478280Y-71502535D01*
X112672865Y-71697120D01*
X112901673Y-71850005D01*
X112978915Y-71882000D01*
X112901673Y-71913995D01*
X112672865Y-72066880D01*
X112478280Y-72261465D01*
X112325395Y-72490273D01*
X112220086Y-72744510D01*
X112166400Y-73014408D01*
X112166400Y-73289592D01*
X112220086Y-73559490D01*
X112325395Y-73813727D01*
X112478280Y-74042535D01*
X112672865Y-74237120D01*
X112901673Y-74390005D01*
X112978915Y-74422000D01*
X112901673Y-74453995D01*
X112672865Y-74606880D01*
X112478280Y-74801465D01*
X112325395Y-75030273D01*
X112220086Y-75284510D01*
X112166400Y-75554408D01*
X112166400Y-75829592D01*
X112220086Y-76099490D01*
X112325395Y-76353727D01*
X112478280Y-76582535D01*
X112672865Y-76777120D01*
X112901673Y-76930005D01*
X112978915Y-76962000D01*
X112901673Y-76993995D01*
X112672865Y-77146880D01*
X112478280Y-77341465D01*
X112325395Y-77570273D01*
X112220086Y-77824510D01*
X112166400Y-78094408D01*
X112166400Y-78369592D01*
X112220086Y-78639490D01*
X112325395Y-78893727D01*
X112478280Y-79122535D01*
X112672865Y-79317120D01*
X112901673Y-79470005D01*
X113155910Y-79575314D01*
X113425808Y-79629000D01*
X113700992Y-79629000D01*
X113970890Y-79575314D01*
X114225127Y-79470005D01*
X114383163Y-79364408D01*
X114706400Y-79364408D01*
X114706400Y-79639592D01*
X114760086Y-79909490D01*
X114865395Y-80163727D01*
X115018280Y-80392535D01*
X115212865Y-80587120D01*
X115441673Y-80740005D01*
X115695910Y-80845314D01*
X115965808Y-80899000D01*
X116240992Y-80899000D01*
X116510890Y-80845314D01*
X116765127Y-80740005D01*
X116993935Y-80587120D01*
X117188520Y-80392535D01*
X117341405Y-80163727D01*
X117373400Y-80086485D01*
X117405395Y-80163727D01*
X117558280Y-80392535D01*
X117752865Y-80587120D01*
X117981673Y-80740005D01*
X118235910Y-80845314D01*
X118505808Y-80899000D01*
X118780992Y-80899000D01*
X119050890Y-80845314D01*
X119305127Y-80740005D01*
X119533935Y-80587120D01*
X119728520Y-80392535D01*
X119881405Y-80163727D01*
X119913400Y-80086485D01*
X119945395Y-80163727D01*
X120098280Y-80392535D01*
X120292865Y-80587120D01*
X120521673Y-80740005D01*
X120775910Y-80845314D01*
X121045808Y-80899000D01*
X121320992Y-80899000D01*
X121590890Y-80845314D01*
X121845127Y-80740005D01*
X122073935Y-80587120D01*
X122268520Y-80392535D01*
X122421405Y-80163727D01*
X122453400Y-80086485D01*
X122485395Y-80163727D01*
X122638280Y-80392535D01*
X122832865Y-80587120D01*
X123061673Y-80740005D01*
X123315910Y-80845314D01*
X123585808Y-80899000D01*
X123860992Y-80899000D01*
X124130890Y-80845314D01*
X124385127Y-80740005D01*
X124613935Y-80587120D01*
X124808520Y-80392535D01*
X124961405Y-80163727D01*
X124993400Y-80086485D01*
X125025395Y-80163727D01*
X125178280Y-80392535D01*
X125372865Y-80587120D01*
X125601673Y-80740005D01*
X125855910Y-80845314D01*
X126125808Y-80899000D01*
X126400992Y-80899000D01*
X126670890Y-80845314D01*
X126925127Y-80740005D01*
X127153935Y-80587120D01*
X127348520Y-80392535D01*
X127501405Y-80163727D01*
X127533400Y-80086485D01*
X127565395Y-80163727D01*
X127718280Y-80392535D01*
X127912865Y-80587120D01*
X128141673Y-80740005D01*
X128395910Y-80845314D01*
X128665808Y-80899000D01*
X128940992Y-80899000D01*
X129210890Y-80845314D01*
X129465127Y-80740005D01*
X129693935Y-80587120D01*
X129888520Y-80392535D01*
X130041405Y-80163727D01*
X130073400Y-80086485D01*
X130105395Y-80163727D01*
X130258280Y-80392535D01*
X130452865Y-80587120D01*
X130681673Y-80740005D01*
X130935910Y-80845314D01*
X131205808Y-80899000D01*
X131480992Y-80899000D01*
X131750890Y-80845314D01*
X132005127Y-80740005D01*
X132233935Y-80587120D01*
X132428520Y-80392535D01*
X132581405Y-80163727D01*
X132613400Y-80086485D01*
X132645395Y-80163727D01*
X132798280Y-80392535D01*
X132992865Y-80587120D01*
X133221673Y-80740005D01*
X133475910Y-80845314D01*
X133745808Y-80899000D01*
X134020992Y-80899000D01*
X134290890Y-80845314D01*
X134545127Y-80740005D01*
X134773935Y-80587120D01*
X134968520Y-80392535D01*
X135121405Y-80163727D01*
X135153400Y-80086485D01*
X135185395Y-80163727D01*
X135338280Y-80392535D01*
X135532865Y-80587120D01*
X135761673Y-80740005D01*
X136015910Y-80845314D01*
X136285808Y-80899000D01*
X136560992Y-80899000D01*
X136830890Y-80845314D01*
X137085127Y-80740005D01*
X137313935Y-80587120D01*
X137508520Y-80392535D01*
X137661405Y-80163727D01*
X137693400Y-80086485D01*
X137725395Y-80163727D01*
X137878280Y-80392535D01*
X138072865Y-80587120D01*
X138301673Y-80740005D01*
X138555910Y-80845314D01*
X138825808Y-80899000D01*
X139100992Y-80899000D01*
X139370890Y-80845314D01*
X139625127Y-80740005D01*
X139853935Y-80587120D01*
X140048520Y-80392535D01*
X140201405Y-80163727D01*
X140233400Y-80086485D01*
X140265395Y-80163727D01*
X140418280Y-80392535D01*
X140612865Y-80587120D01*
X140841673Y-80740005D01*
X141095910Y-80845314D01*
X141365808Y-80899000D01*
X141640992Y-80899000D01*
X141910890Y-80845314D01*
X142165127Y-80740005D01*
X142393935Y-80587120D01*
X142588520Y-80392535D01*
X142741405Y-80163727D01*
X142773400Y-80086485D01*
X142805395Y-80163727D01*
X142958280Y-80392535D01*
X143152865Y-80587120D01*
X143381673Y-80740005D01*
X143635910Y-80845314D01*
X143905808Y-80899000D01*
X144180992Y-80899000D01*
X144450890Y-80845314D01*
X144705127Y-80740005D01*
X144933935Y-80587120D01*
X145128520Y-80392535D01*
X145281405Y-80163727D01*
X145386714Y-79909490D01*
X145440400Y-79639592D01*
X145440400Y-79364408D01*
X145386714Y-79094510D01*
X145281405Y-78840273D01*
X145128520Y-78611465D01*
X144933935Y-78416880D01*
X144705127Y-78263995D01*
X144450890Y-78158686D01*
X144180992Y-78105000D01*
X143905808Y-78105000D01*
X143635910Y-78158686D01*
X143381673Y-78263995D01*
X143152865Y-78416880D01*
X142958280Y-78611465D01*
X142805395Y-78840273D01*
X142773400Y-78917515D01*
X142741405Y-78840273D01*
X142588520Y-78611465D01*
X142393935Y-78416880D01*
X142165127Y-78263995D01*
X141910890Y-78158686D01*
X141640992Y-78105000D01*
X141365808Y-78105000D01*
X141095910Y-78158686D01*
X140841673Y-78263995D01*
X140612865Y-78416880D01*
X140418280Y-78611465D01*
X140265395Y-78840273D01*
X140233400Y-78917515D01*
X140201405Y-78840273D01*
X140048520Y-78611465D01*
X139853935Y-78416880D01*
X139625127Y-78263995D01*
X139370890Y-78158686D01*
X139100992Y-78105000D01*
X138825808Y-78105000D01*
X138555910Y-78158686D01*
X138301673Y-78263995D01*
X138072865Y-78416880D01*
X137878280Y-78611465D01*
X137725395Y-78840273D01*
X137693400Y-78917515D01*
X137661405Y-78840273D01*
X137508520Y-78611465D01*
X137313935Y-78416880D01*
X137085127Y-78263995D01*
X136830890Y-78158686D01*
X136560992Y-78105000D01*
X136285808Y-78105000D01*
X136015910Y-78158686D01*
X135761673Y-78263995D01*
X135532865Y-78416880D01*
X135338280Y-78611465D01*
X135185395Y-78840273D01*
X135153400Y-78917515D01*
X135121405Y-78840273D01*
X134968520Y-78611465D01*
X134773935Y-78416880D01*
X134545127Y-78263995D01*
X134290890Y-78158686D01*
X134020992Y-78105000D01*
X133745808Y-78105000D01*
X133475910Y-78158686D01*
X133221673Y-78263995D01*
X132992865Y-78416880D01*
X132798280Y-78611465D01*
X132645395Y-78840273D01*
X132613400Y-78917515D01*
X132581405Y-78840273D01*
X132428520Y-78611465D01*
X132233935Y-78416880D01*
X132005127Y-78263995D01*
X131750890Y-78158686D01*
X131480992Y-78105000D01*
X131205808Y-78105000D01*
X130935910Y-78158686D01*
X130681673Y-78263995D01*
X130452865Y-78416880D01*
X130258280Y-78611465D01*
X130105395Y-78840273D01*
X130073400Y-78917515D01*
X130041405Y-78840273D01*
X129888520Y-78611465D01*
X129693935Y-78416880D01*
X129465127Y-78263995D01*
X129210890Y-78158686D01*
X128940992Y-78105000D01*
X128665808Y-78105000D01*
X128395910Y-78158686D01*
X128141673Y-78263995D01*
X127912865Y-78416880D01*
X127718280Y-78611465D01*
X127565395Y-78840273D01*
X127533400Y-78917515D01*
X127501405Y-78840273D01*
X127348520Y-78611465D01*
X127153935Y-78416880D01*
X126925127Y-78263995D01*
X126670890Y-78158686D01*
X126400992Y-78105000D01*
X126125808Y-78105000D01*
X125855910Y-78158686D01*
X125601673Y-78263995D01*
X125372865Y-78416880D01*
X125178280Y-78611465D01*
X125025395Y-78840273D01*
X124993400Y-78917515D01*
X124961405Y-78840273D01*
X124808520Y-78611465D01*
X124613935Y-78416880D01*
X124385127Y-78263995D01*
X124130890Y-78158686D01*
X123860992Y-78105000D01*
X123585808Y-78105000D01*
X123315910Y-78158686D01*
X123061673Y-78263995D01*
X122832865Y-78416880D01*
X122638280Y-78611465D01*
X122485395Y-78840273D01*
X122453400Y-78917515D01*
X122421405Y-78840273D01*
X122268520Y-78611465D01*
X122073935Y-78416880D01*
X121845127Y-78263995D01*
X121590890Y-78158686D01*
X121320992Y-78105000D01*
X121045808Y-78105000D01*
X120775910Y-78158686D01*
X120521673Y-78263995D01*
X120292865Y-78416880D01*
X120098280Y-78611465D01*
X119945395Y-78840273D01*
X119913400Y-78917515D01*
X119881405Y-78840273D01*
X119728520Y-78611465D01*
X119533935Y-78416880D01*
X119305127Y-78263995D01*
X119050890Y-78158686D01*
X118780992Y-78105000D01*
X118505808Y-78105000D01*
X118235910Y-78158686D01*
X117981673Y-78263995D01*
X117752865Y-78416880D01*
X117558280Y-78611465D01*
X117405395Y-78840273D01*
X117373400Y-78917515D01*
X117341405Y-78840273D01*
X117188520Y-78611465D01*
X116993935Y-78416880D01*
X116765127Y-78263995D01*
X116510890Y-78158686D01*
X116240992Y-78105000D01*
X115965808Y-78105000D01*
X115695910Y-78158686D01*
X115441673Y-78263995D01*
X115212865Y-78416880D01*
X115018280Y-78611465D01*
X114865395Y-78840273D01*
X114760086Y-79094510D01*
X114706400Y-79364408D01*
X114383163Y-79364408D01*
X114453935Y-79317120D01*
X114648520Y-79122535D01*
X114801405Y-78893727D01*
X114906714Y-78639490D01*
X114960400Y-78369592D01*
X114960400Y-78094408D01*
X114906714Y-77824510D01*
X114801405Y-77570273D01*
X114648520Y-77341465D01*
X114453935Y-77146880D01*
X114225127Y-76993995D01*
X114147885Y-76962000D01*
X114225127Y-76930005D01*
X114453935Y-76777120D01*
X114648520Y-76582535D01*
X114801405Y-76353727D01*
X114906714Y-76099490D01*
X114960400Y-75829592D01*
X114960400Y-75554408D01*
X114906714Y-75284510D01*
X114801405Y-75030273D01*
X114648520Y-74801465D01*
X114453935Y-74606880D01*
X114225127Y-74453995D01*
X114147885Y-74422000D01*
X114225127Y-74390005D01*
X114453935Y-74237120D01*
X114648520Y-74042535D01*
X114801405Y-73813727D01*
X114906714Y-73559490D01*
X114960400Y-73289592D01*
X114960400Y-73014408D01*
X114906714Y-72744510D01*
X114801405Y-72490273D01*
X114648520Y-72261465D01*
X114453935Y-72066880D01*
X114225127Y-71913995D01*
X114147885Y-71882000D01*
X114225127Y-71850005D01*
X114453935Y-71697120D01*
X114648520Y-71502535D01*
X114801405Y-71273727D01*
X114906714Y-71019490D01*
X114960400Y-70749592D01*
X114960400Y-70474408D01*
X114906714Y-70204510D01*
X114801405Y-69950273D01*
X114648520Y-69721465D01*
X114453935Y-69526880D01*
X114225127Y-69373995D01*
X114147885Y-69342000D01*
X114225127Y-69310005D01*
X114453935Y-69157120D01*
X114648520Y-68962535D01*
X114801405Y-68733727D01*
X114906714Y-68479490D01*
X114960400Y-68209592D01*
X114960400Y-67934408D01*
X114906714Y-67664510D01*
X114801405Y-67410273D01*
X114648520Y-67181465D01*
X114513644Y-67046589D01*
X123481400Y-67046589D01*
X123481400Y-67319411D01*
X123534625Y-67586989D01*
X123639029Y-67839043D01*
X123790601Y-68065886D01*
X123983514Y-68258799D01*
X124210357Y-68410371D01*
X124462411Y-68514775D01*
X124729989Y-68568000D01*
X125002811Y-68568000D01*
X125270389Y-68514775D01*
X125522443Y-68410371D01*
X125749286Y-68258799D01*
X125942199Y-68065886D01*
X126093771Y-67839043D01*
X126136400Y-67736127D01*
X126179029Y-67839043D01*
X126330601Y-68065886D01*
X126523514Y-68258799D01*
X126750357Y-68410371D01*
X127002411Y-68514775D01*
X127269989Y-68568000D01*
X127542811Y-68568000D01*
X127810389Y-68514775D01*
X128062443Y-68410371D01*
X128289286Y-68258799D01*
X128482199Y-68065886D01*
X128633771Y-67839043D01*
X128738175Y-67586989D01*
X128791400Y-67319411D01*
X128791400Y-67046589D01*
X133895400Y-67046589D01*
X133895400Y-67319411D01*
X133948625Y-67586989D01*
X134053029Y-67839043D01*
X134204601Y-68065886D01*
X134397514Y-68258799D01*
X134624357Y-68410371D01*
X134876411Y-68514775D01*
X135143989Y-68568000D01*
X135416811Y-68568000D01*
X135684389Y-68514775D01*
X135936443Y-68410371D01*
X136163286Y-68258799D01*
X136356199Y-68065886D01*
X136507771Y-67839043D01*
X136550400Y-67736127D01*
X136593029Y-67839043D01*
X136744601Y-68065886D01*
X136937514Y-68258799D01*
X137164357Y-68410371D01*
X137416411Y-68514775D01*
X137683989Y-68568000D01*
X137956811Y-68568000D01*
X138224389Y-68514775D01*
X138476443Y-68410371D01*
X138703286Y-68258799D01*
X138896199Y-68065886D01*
X139047771Y-67839043D01*
X139152175Y-67586989D01*
X139205400Y-67319411D01*
X139205400Y-67046589D01*
X139152175Y-66779011D01*
X139047771Y-66526957D01*
X138896199Y-66300114D01*
X138703286Y-66107201D01*
X138476443Y-65955629D01*
X138224389Y-65851225D01*
X137956811Y-65798000D01*
X137683989Y-65798000D01*
X137416411Y-65851225D01*
X137164357Y-65955629D01*
X136937514Y-66107201D01*
X136744601Y-66300114D01*
X136593029Y-66526957D01*
X136550400Y-66629873D01*
X136507771Y-66526957D01*
X136356199Y-66300114D01*
X136163286Y-66107201D01*
X135936443Y-65955629D01*
X135684389Y-65851225D01*
X135416811Y-65798000D01*
X135143989Y-65798000D01*
X134876411Y-65851225D01*
X134624357Y-65955629D01*
X134397514Y-66107201D01*
X134204601Y-66300114D01*
X134053029Y-66526957D01*
X133948625Y-66779011D01*
X133895400Y-67046589D01*
X128791400Y-67046589D01*
X128738175Y-66779011D01*
X128633771Y-66526957D01*
X128482199Y-66300114D01*
X128289286Y-66107201D01*
X128062443Y-65955629D01*
X127810389Y-65851225D01*
X127542811Y-65798000D01*
X127269989Y-65798000D01*
X127002411Y-65851225D01*
X126750357Y-65955629D01*
X126523514Y-66107201D01*
X126330601Y-66300114D01*
X126179029Y-66526957D01*
X126136400Y-66629873D01*
X126093771Y-66526957D01*
X125942199Y-66300114D01*
X125749286Y-66107201D01*
X125522443Y-65955629D01*
X125270389Y-65851225D01*
X125002811Y-65798000D01*
X124729989Y-65798000D01*
X124462411Y-65851225D01*
X124210357Y-65955629D01*
X123983514Y-66107201D01*
X123790601Y-66300114D01*
X123639029Y-66526957D01*
X123534625Y-66779011D01*
X123481400Y-67046589D01*
X114513644Y-67046589D01*
X114453935Y-66986880D01*
X114225127Y-66833995D01*
X114147885Y-66802000D01*
X114225127Y-66770005D01*
X114453935Y-66617120D01*
X114648520Y-66422535D01*
X114801405Y-66193727D01*
X114906714Y-65939490D01*
X114960400Y-65669592D01*
X114960400Y-65394408D01*
X114906714Y-65124510D01*
X114801405Y-64870273D01*
X114648520Y-64641465D01*
X114453935Y-64446880D01*
X114225127Y-64293995D01*
X113970890Y-64188686D01*
X113700992Y-64135000D01*
X113425808Y-64135000D01*
X113155910Y-64188686D01*
X112901673Y-64293995D01*
X112672865Y-64446880D01*
X112478280Y-64641465D01*
X112325395Y-64870273D01*
X112220086Y-65124510D01*
X112166400Y-65394408D01*
X89281000Y-65394408D01*
X89281000Y-64124408D01*
X114706400Y-64124408D01*
X114706400Y-64399592D01*
X114760086Y-64669490D01*
X114865395Y-64923727D01*
X115018280Y-65152535D01*
X115212865Y-65347120D01*
X115441673Y-65500005D01*
X115695910Y-65605314D01*
X115965808Y-65659000D01*
X116240992Y-65659000D01*
X116510890Y-65605314D01*
X116765127Y-65500005D01*
X116993935Y-65347120D01*
X117113490Y-65227565D01*
X117857440Y-65227565D01*
X117924420Y-65467656D01*
X118173448Y-65584756D01*
X118440535Y-65651023D01*
X118715417Y-65663910D01*
X118987533Y-65622922D01*
X119246423Y-65529636D01*
X119362380Y-65467656D01*
X119429360Y-65227565D01*
X118643400Y-64441605D01*
X117857440Y-65227565D01*
X117113490Y-65227565D01*
X117188520Y-65152535D01*
X117341405Y-64923727D01*
X117371092Y-64852057D01*
X117375764Y-64865023D01*
X117437744Y-64980980D01*
X117677835Y-65047960D01*
X118463795Y-64262000D01*
X118823005Y-64262000D01*
X119608965Y-65047960D01*
X119849056Y-64980980D01*
X119912885Y-64845240D01*
X119945395Y-64923727D01*
X120098280Y-65152535D01*
X120292865Y-65347120D01*
X120521673Y-65500005D01*
X120775910Y-65605314D01*
X121045808Y-65659000D01*
X121320992Y-65659000D01*
X121590890Y-65605314D01*
X121845127Y-65500005D01*
X122073935Y-65347120D01*
X122268520Y-65152535D01*
X122421405Y-64923727D01*
X122453400Y-64846485D01*
X122485395Y-64923727D01*
X122638280Y-65152535D01*
X122832865Y-65347120D01*
X123061673Y-65500005D01*
X123315910Y-65605314D01*
X123585808Y-65659000D01*
X123860992Y-65659000D01*
X124130890Y-65605314D01*
X124385127Y-65500005D01*
X124613935Y-65347120D01*
X124808520Y-65152535D01*
X124961405Y-64923727D01*
X124993400Y-64846485D01*
X125025395Y-64923727D01*
X125178280Y-65152535D01*
X125372865Y-65347120D01*
X125601673Y-65500005D01*
X125855910Y-65605314D01*
X126125808Y-65659000D01*
X126400992Y-65659000D01*
X126670890Y-65605314D01*
X126925127Y-65500005D01*
X127153935Y-65347120D01*
X127348520Y-65152535D01*
X127501405Y-64923727D01*
X127533400Y-64846485D01*
X127565395Y-64923727D01*
X127718280Y-65152535D01*
X127912865Y-65347120D01*
X128141673Y-65500005D01*
X128395910Y-65605314D01*
X128665808Y-65659000D01*
X128940992Y-65659000D01*
X129210890Y-65605314D01*
X129465127Y-65500005D01*
X129693935Y-65347120D01*
X129888520Y-65152535D01*
X130041405Y-64923727D01*
X130073400Y-64846485D01*
X130105395Y-64923727D01*
X130258280Y-65152535D01*
X130452865Y-65347120D01*
X130681673Y-65500005D01*
X130935910Y-65605314D01*
X131205808Y-65659000D01*
X131480992Y-65659000D01*
X131750890Y-65605314D01*
X132005127Y-65500005D01*
X132233935Y-65347120D01*
X132428520Y-65152535D01*
X132581405Y-64923727D01*
X132613400Y-64846485D01*
X132645395Y-64923727D01*
X132798280Y-65152535D01*
X132992865Y-65347120D01*
X133221673Y-65500005D01*
X133475910Y-65605314D01*
X133745808Y-65659000D01*
X134020992Y-65659000D01*
X134290890Y-65605314D01*
X134545127Y-65500005D01*
X134773935Y-65347120D01*
X134968520Y-65152535D01*
X135121405Y-64923727D01*
X135153400Y-64846485D01*
X135185395Y-64923727D01*
X135338280Y-65152535D01*
X135532865Y-65347120D01*
X135761673Y-65500005D01*
X136015910Y-65605314D01*
X136285808Y-65659000D01*
X136560992Y-65659000D01*
X136830890Y-65605314D01*
X137085127Y-65500005D01*
X137313935Y-65347120D01*
X137508520Y-65152535D01*
X137661405Y-64923727D01*
X137693400Y-64846485D01*
X137725395Y-64923727D01*
X137878280Y-65152535D01*
X138072865Y-65347120D01*
X138301673Y-65500005D01*
X138555910Y-65605314D01*
X138825808Y-65659000D01*
X139100992Y-65659000D01*
X139370890Y-65605314D01*
X139625127Y-65500005D01*
X139853935Y-65347120D01*
X140048520Y-65152535D01*
X140201405Y-64923727D01*
X140233400Y-64846485D01*
X140265395Y-64923727D01*
X140418280Y-65152535D01*
X140612865Y-65347120D01*
X140841673Y-65500005D01*
X141095910Y-65605314D01*
X141365808Y-65659000D01*
X141640992Y-65659000D01*
X141910890Y-65605314D01*
X142165127Y-65500005D01*
X142393935Y-65347120D01*
X142588520Y-65152535D01*
X142741405Y-64923727D01*
X142773400Y-64846485D01*
X142805395Y-64923727D01*
X142958280Y-65152535D01*
X143152865Y-65347120D01*
X143381673Y-65500005D01*
X143635910Y-65605314D01*
X143905808Y-65659000D01*
X144180992Y-65659000D01*
X144450890Y-65605314D01*
X144705127Y-65500005D01*
X144933935Y-65347120D01*
X145128520Y-65152535D01*
X145281405Y-64923727D01*
X145386714Y-64669490D01*
X145440400Y-64399592D01*
X145440400Y-64124408D01*
X145386714Y-63854510D01*
X145281405Y-63600273D01*
X145128520Y-63371465D01*
X144933935Y-63176880D01*
X144705127Y-63023995D01*
X144450890Y-62918686D01*
X144180992Y-62865000D01*
X143905808Y-62865000D01*
X143635910Y-62918686D01*
X143381673Y-63023995D01*
X143152865Y-63176880D01*
X142958280Y-63371465D01*
X142805395Y-63600273D01*
X142773400Y-63677515D01*
X142741405Y-63600273D01*
X142588520Y-63371465D01*
X142393935Y-63176880D01*
X142165127Y-63023995D01*
X141910890Y-62918686D01*
X141640992Y-62865000D01*
X141365808Y-62865000D01*
X141095910Y-62918686D01*
X140841673Y-63023995D01*
X140612865Y-63176880D01*
X140418280Y-63371465D01*
X140265395Y-63600273D01*
X140233400Y-63677515D01*
X140201405Y-63600273D01*
X140048520Y-63371465D01*
X139853935Y-63176880D01*
X139625127Y-63023995D01*
X139370890Y-62918686D01*
X139100992Y-62865000D01*
X138825808Y-62865000D01*
X138555910Y-62918686D01*
X138301673Y-63023995D01*
X138072865Y-63176880D01*
X137878280Y-63371465D01*
X137725395Y-63600273D01*
X137693400Y-63677515D01*
X137661405Y-63600273D01*
X137508520Y-63371465D01*
X137313935Y-63176880D01*
X137183400Y-63089659D01*
X137183400Y-61503401D01*
X139758802Y-58928000D01*
X158180370Y-58928000D01*
X161290000Y-62037631D01*
X161290001Y-137884565D01*
X161290000Y-137884575D01*
X161290001Y-138463422D01*
X161290000Y-142589386D01*
X161159552Y-142676549D01*
X160964549Y-142871552D01*
X160811336Y-143100851D01*
X160782000Y-143171674D01*
X160752664Y-143100851D01*
X160599451Y-142871552D01*
X160404448Y-142676549D01*
X160175149Y-142523336D01*
X159920365Y-142417801D01*
X159649888Y-142364000D01*
X159374112Y-142364000D01*
X159103635Y-142417801D01*
X158848851Y-142523336D01*
X158619552Y-142676549D01*
X158424549Y-142871552D01*
X158271336Y-143100851D01*
X158242000Y-143171674D01*
X158212664Y-143100851D01*
X158059451Y-142871552D01*
X157864448Y-142676549D01*
X157635149Y-142523336D01*
X157380365Y-142417801D01*
X157109888Y-142364000D01*
X156834112Y-142364000D01*
X156563635Y-142417801D01*
X156308851Y-142523336D01*
X156079552Y-142676549D01*
X155884549Y-142871552D01*
X155731336Y-143100851D01*
X155625801Y-143355635D01*
X155572000Y-143626112D01*
X155572000Y-143901888D01*
X155625801Y-144172365D01*
X155731336Y-144427149D01*
X155884549Y-144656448D01*
X156079552Y-144851451D01*
X156308851Y-145004664D01*
X156563635Y-145110199D01*
X156834112Y-145164000D01*
X157109888Y-145164000D01*
X157380365Y-145110199D01*
X157635149Y-145004664D01*
X157864448Y-144851451D01*
X158059451Y-144656448D01*
X158212664Y-144427149D01*
X158242000Y-144356326D01*
X158271336Y-144427149D01*
X158424549Y-144656448D01*
X158619552Y-144851451D01*
X158848851Y-145004664D01*
X159103635Y-145110199D01*
X159374112Y-145164000D01*
X159649888Y-145164000D01*
X159920365Y-145110199D01*
X160175149Y-145004664D01*
X160404448Y-144851451D01*
X160599451Y-144656448D01*
X160752664Y-144427149D01*
X160782000Y-144356326D01*
X160811336Y-144427149D01*
X160964549Y-144656448D01*
X161159552Y-144851451D01*
X161388851Y-145004664D01*
X161643635Y-145110199D01*
X161914112Y-145164000D01*
X162189888Y-145164000D01*
X162460365Y-145110199D01*
X162715149Y-145004664D01*
X162944448Y-144851451D01*
X163064192Y-144731707D01*
X163803898Y-144731707D01*
X163871240Y-144972106D01*
X164120780Y-145089506D01*
X164388427Y-145155967D01*
X164663899Y-145168936D01*
X164936607Y-145127914D01*
X165196072Y-145034478D01*
X165312760Y-144972106D01*
X165380102Y-144731707D01*
X164592000Y-143943605D01*
X163803898Y-144731707D01*
X163064192Y-144731707D01*
X163139451Y-144656448D01*
X163292664Y-144427149D01*
X163319482Y-144362406D01*
X163321522Y-144368072D01*
X163383894Y-144484760D01*
X163624293Y-144552102D01*
X164412395Y-143764000D01*
X164771605Y-143764000D01*
X165559707Y-144552102D01*
X165800106Y-144484760D01*
X165917506Y-144235220D01*
X165983967Y-143967573D01*
X165996936Y-143692101D01*
X165955914Y-143419393D01*
X165862478Y-143159928D01*
X165800106Y-143043240D01*
X165559707Y-142975898D01*
X164771605Y-143764000D01*
X164412395Y-143764000D01*
X163624293Y-142975898D01*
X163383894Y-143043240D01*
X163322688Y-143173336D01*
X163292664Y-143100851D01*
X163139451Y-142871552D01*
X163064192Y-142796293D01*
X163803898Y-142796293D01*
X164592000Y-143584395D01*
X165380102Y-142796293D01*
X165312760Y-142555894D01*
X165063220Y-142438494D01*
X164795573Y-142372033D01*
X164520101Y-142359064D01*
X164247393Y-142400086D01*
X163987928Y-142493522D01*
X163871240Y-142555894D01*
X163803898Y-142796293D01*
X163064192Y-142796293D01*
X162944448Y-142676549D01*
X162814000Y-142589386D01*
X162814000Y-135229419D01*
X191435000Y-135229419D01*
X191435000Y-135610581D01*
X191509361Y-135984419D01*
X191655225Y-136336566D01*
X191866987Y-136653491D01*
X192136509Y-136923013D01*
X192453434Y-137134775D01*
X192805581Y-137280639D01*
X193179419Y-137355000D01*
X193560581Y-137355000D01*
X193934419Y-137280639D01*
X194286566Y-137134775D01*
X194603491Y-136923013D01*
X194873013Y-136653491D01*
X195084775Y-136336566D01*
X195230639Y-135984419D01*
X195305000Y-135610581D01*
X195305000Y-135229419D01*
X195230639Y-134855581D01*
X195084775Y-134503434D01*
X194873013Y-134186509D01*
X194603491Y-133916987D01*
X194286566Y-133705225D01*
X193934419Y-133559361D01*
X193560581Y-133485000D01*
X193179419Y-133485000D01*
X192805581Y-133559361D01*
X192453434Y-133705225D01*
X192136509Y-133916987D01*
X191866987Y-134186509D01*
X191655225Y-134503434D01*
X191509361Y-134855581D01*
X191435000Y-135229419D01*
X162814000Y-135229419D01*
X162814000Y-120479419D01*
X213635000Y-120479419D01*
X213635000Y-120860581D01*
X213709361Y-121234419D01*
X213855225Y-121586566D01*
X214066987Y-121903491D01*
X214336509Y-122173013D01*
X214653434Y-122384775D01*
X215005581Y-122530639D01*
X215379419Y-122605000D01*
X215760581Y-122605000D01*
X216134419Y-122530639D01*
X216486566Y-122384775D01*
X216803491Y-122173013D01*
X217073013Y-121903491D01*
X217284775Y-121586566D01*
X217430639Y-121234419D01*
X217505000Y-120860581D01*
X217505000Y-120479419D01*
X217430639Y-120105581D01*
X217284775Y-119753434D01*
X217073013Y-119436509D01*
X216803491Y-119166987D01*
X216486566Y-118955225D01*
X216134419Y-118809361D01*
X215760581Y-118735000D01*
X215379419Y-118735000D01*
X215005581Y-118809361D01*
X214653434Y-118955225D01*
X214336509Y-119166987D01*
X214066987Y-119436509D01*
X213855225Y-119753434D01*
X213709361Y-120105581D01*
X213635000Y-120479419D01*
X162814000Y-120479419D01*
X162814000Y-116896421D01*
X173282480Y-116896421D01*
X173282480Y-117316979D01*
X173364527Y-117729456D01*
X173525468Y-118118002D01*
X173759117Y-118467683D01*
X174056497Y-118765063D01*
X174406178Y-118998712D01*
X174794724Y-119159653D01*
X175207201Y-119241700D01*
X175627759Y-119241700D01*
X176040236Y-119159653D01*
X176428782Y-118998712D01*
X176778463Y-118765063D01*
X177075843Y-118467683D01*
X177309492Y-118118002D01*
X177470433Y-117729456D01*
X177552480Y-117316979D01*
X177552480Y-116896421D01*
X177470433Y-116483944D01*
X177309492Y-116095398D01*
X177075843Y-115745717D01*
X176778463Y-115448337D01*
X176428782Y-115214688D01*
X176040236Y-115053747D01*
X175627759Y-114971700D01*
X175207201Y-114971700D01*
X174794724Y-115053747D01*
X174406178Y-115214688D01*
X174056497Y-115448337D01*
X173759117Y-115745717D01*
X173525468Y-116095398D01*
X173364527Y-116483944D01*
X173282480Y-116896421D01*
X162814000Y-116896421D01*
X162814000Y-107229419D01*
X191435000Y-107229419D01*
X191435000Y-107610581D01*
X191509361Y-107984419D01*
X191655225Y-108336566D01*
X191866987Y-108653491D01*
X192136509Y-108923013D01*
X192453434Y-109134775D01*
X192805581Y-109280639D01*
X193179419Y-109355000D01*
X193560581Y-109355000D01*
X193934419Y-109280639D01*
X194286566Y-109134775D01*
X194603491Y-108923013D01*
X194873013Y-108653491D01*
X195084775Y-108336566D01*
X195230639Y-107984419D01*
X195305000Y-107610581D01*
X195305000Y-107229419D01*
X195230639Y-106855581D01*
X195084775Y-106503434D01*
X194873013Y-106186509D01*
X194603491Y-105916987D01*
X194286566Y-105705225D01*
X193934419Y-105559361D01*
X193560581Y-105485000D01*
X193179419Y-105485000D01*
X192805581Y-105559361D01*
X192453434Y-105705225D01*
X192136509Y-105916987D01*
X191866987Y-106186509D01*
X191655225Y-106503434D01*
X191509361Y-106855581D01*
X191435000Y-107229419D01*
X162814000Y-107229419D01*
X162814000Y-98011653D01*
X196807952Y-98011653D01*
X196963962Y-98327214D01*
X197338745Y-98518020D01*
X197743551Y-98632044D01*
X198162824Y-98664902D01*
X198580451Y-98615334D01*
X198980383Y-98485243D01*
X199276038Y-98327214D01*
X199432048Y-98011653D01*
X198120000Y-96699605D01*
X196807952Y-98011653D01*
X162814000Y-98011653D01*
X162814000Y-96562824D01*
X195975098Y-96562824D01*
X196024666Y-96980451D01*
X196154757Y-97380383D01*
X196312786Y-97676038D01*
X196628347Y-97832048D01*
X197940395Y-96520000D01*
X198299605Y-96520000D01*
X199611653Y-97832048D01*
X199927214Y-97676038D01*
X200118020Y-97301255D01*
X200232044Y-96896449D01*
X200264902Y-96477176D01*
X200215334Y-96059549D01*
X200085243Y-95659617D01*
X199927214Y-95363962D01*
X199611653Y-95207952D01*
X198299605Y-96520000D01*
X197940395Y-96520000D01*
X196628347Y-95207952D01*
X196312786Y-95363962D01*
X196121980Y-95738745D01*
X196007956Y-96143551D01*
X195975098Y-96562824D01*
X162814000Y-96562824D01*
X162814000Y-95028347D01*
X196807952Y-95028347D01*
X198120000Y-96340395D01*
X199432048Y-95028347D01*
X199427922Y-95020000D01*
X208681928Y-95020000D01*
X208681928Y-98020000D01*
X208694188Y-98144482D01*
X208730498Y-98264180D01*
X208789463Y-98374494D01*
X208868815Y-98471185D01*
X208965506Y-98550537D01*
X209075820Y-98609502D01*
X209195518Y-98645812D01*
X209320000Y-98658072D01*
X212320000Y-98658072D01*
X212444482Y-98645812D01*
X212564180Y-98609502D01*
X212674494Y-98550537D01*
X212771185Y-98471185D01*
X212850537Y-98374494D01*
X212909502Y-98264180D01*
X212945812Y-98144482D01*
X212958072Y-98020000D01*
X212958072Y-95020000D01*
X212945812Y-94895518D01*
X212909502Y-94775820D01*
X212850537Y-94665506D01*
X212771185Y-94568815D01*
X212674494Y-94489463D01*
X212564180Y-94430498D01*
X212444482Y-94394188D01*
X212320000Y-94381928D01*
X209320000Y-94381928D01*
X209195518Y-94394188D01*
X209075820Y-94430498D01*
X208965506Y-94489463D01*
X208868815Y-94568815D01*
X208789463Y-94665506D01*
X208730498Y-94775820D01*
X208694188Y-94895518D01*
X208681928Y-95020000D01*
X199427922Y-95020000D01*
X199276038Y-94712786D01*
X198901255Y-94521980D01*
X198496449Y-94407956D01*
X198077176Y-94375098D01*
X197659549Y-94424666D01*
X197259617Y-94554757D01*
X196963962Y-94712786D01*
X196807952Y-95028347D01*
X162814000Y-95028347D01*
X162814000Y-85895721D01*
X173283000Y-85895721D01*
X173283000Y-86316279D01*
X173365047Y-86728756D01*
X173525988Y-87117302D01*
X173759637Y-87466983D01*
X174057017Y-87764363D01*
X174406698Y-87998012D01*
X174795244Y-88158953D01*
X175207721Y-88241000D01*
X175628279Y-88241000D01*
X176040756Y-88158953D01*
X176429302Y-87998012D01*
X176778983Y-87764363D01*
X177076363Y-87466983D01*
X177310012Y-87117302D01*
X177470953Y-86728756D01*
X177553000Y-86316279D01*
X177553000Y-85895721D01*
X177470953Y-85483244D01*
X177310012Y-85094698D01*
X177076363Y-84745017D01*
X176778983Y-84447637D01*
X176429302Y-84213988D01*
X176040756Y-84053047D01*
X175628279Y-83971000D01*
X175207721Y-83971000D01*
X174795244Y-84053047D01*
X174406698Y-84213988D01*
X174057017Y-84447637D01*
X173759637Y-84745017D01*
X173525988Y-85094698D01*
X173365047Y-85483244D01*
X173283000Y-85895721D01*
X162814000Y-85895721D01*
X162814000Y-80430000D01*
X209331928Y-80430000D01*
X209331928Y-82130000D01*
X209344188Y-82254482D01*
X209380498Y-82374180D01*
X209439463Y-82484494D01*
X209518815Y-82581185D01*
X209615506Y-82660537D01*
X209725820Y-82719502D01*
X209798380Y-82741513D01*
X209666525Y-82873368D01*
X209504010Y-83116589D01*
X209392068Y-83386842D01*
X209335000Y-83673740D01*
X209335000Y-83966260D01*
X209392068Y-84253158D01*
X209504010Y-84523411D01*
X209666525Y-84766632D01*
X209873368Y-84973475D01*
X210116589Y-85135990D01*
X210386842Y-85247932D01*
X210673740Y-85305000D01*
X210966260Y-85305000D01*
X211253158Y-85247932D01*
X211523411Y-85135990D01*
X211766632Y-84973475D01*
X211973475Y-84766632D01*
X212135990Y-84523411D01*
X212247932Y-84253158D01*
X212305000Y-83966260D01*
X212305000Y-83673740D01*
X212247932Y-83386842D01*
X212135990Y-83116589D01*
X211973475Y-82873368D01*
X211841620Y-82741513D01*
X211914180Y-82719502D01*
X212024494Y-82660537D01*
X212121185Y-82581185D01*
X212200537Y-82484494D01*
X212259502Y-82374180D01*
X212295812Y-82254482D01*
X212308072Y-82130000D01*
X212308072Y-80430000D01*
X212295812Y-80305518D01*
X212259502Y-80185820D01*
X212200537Y-80075506D01*
X212121185Y-79978815D01*
X212024494Y-79899463D01*
X211914180Y-79840498D01*
X211794482Y-79804188D01*
X211670000Y-79791928D01*
X209970000Y-79791928D01*
X209845518Y-79804188D01*
X209725820Y-79840498D01*
X209615506Y-79899463D01*
X209518815Y-79978815D01*
X209439463Y-80075506D01*
X209380498Y-80185820D01*
X209344188Y-80305518D01*
X209331928Y-80430000D01*
X162814000Y-80430000D01*
X162814000Y-61759422D01*
X162817686Y-61721999D01*
X162814000Y-61684574D01*
X162802974Y-61572622D01*
X162759402Y-61428985D01*
X162688645Y-61296608D01*
X162593422Y-61180578D01*
X162564353Y-61156722D01*
X159061284Y-57653654D01*
X159037422Y-57624578D01*
X158921392Y-57529355D01*
X158789015Y-57458598D01*
X158645378Y-57415026D01*
X158533426Y-57404000D01*
X158533423Y-57404000D01*
X158496000Y-57400314D01*
X158458577Y-57404000D01*
X139463017Y-57404000D01*
X139446000Y-57402324D01*
X139428983Y-57404000D01*
X139408574Y-57404000D01*
X139296622Y-57415026D01*
X139152985Y-57458598D01*
X139020608Y-57529355D01*
X138904578Y-57624578D01*
X138867774Y-57669424D01*
X135912398Y-60624801D01*
X135883400Y-60648599D01*
X135859602Y-60677597D01*
X135859601Y-60677598D01*
X135788426Y-60764324D01*
X135717854Y-60896354D01*
X135687580Y-60996158D01*
X135681987Y-61014598D01*
X135674398Y-61039615D01*
X135659724Y-61188600D01*
X135663401Y-61225932D01*
X135663400Y-63089659D01*
X135532865Y-63176880D01*
X135338280Y-63371465D01*
X135185395Y-63600273D01*
X135153400Y-63677515D01*
X135121405Y-63600273D01*
X134968520Y-63371465D01*
X134773935Y-63176880D01*
X134545127Y-63023995D01*
X134290890Y-62918686D01*
X134020992Y-62865000D01*
X133745808Y-62865000D01*
X133475910Y-62918686D01*
X133221673Y-63023995D01*
X132992865Y-63176880D01*
X132798280Y-63371465D01*
X132645395Y-63600273D01*
X132613400Y-63677515D01*
X132581405Y-63600273D01*
X132428520Y-63371465D01*
X132233935Y-63176880D01*
X132005127Y-63023995D01*
X131750890Y-62918686D01*
X131480992Y-62865000D01*
X131205808Y-62865000D01*
X130935910Y-62918686D01*
X130681673Y-63023995D01*
X130452865Y-63176880D01*
X130258280Y-63371465D01*
X130105395Y-63600273D01*
X130073400Y-63677515D01*
X130041405Y-63600273D01*
X129888520Y-63371465D01*
X129693935Y-63176880D01*
X129465127Y-63023995D01*
X129210890Y-62918686D01*
X128940992Y-62865000D01*
X128665808Y-62865000D01*
X128395910Y-62918686D01*
X128141673Y-63023995D01*
X127912865Y-63176880D01*
X127718280Y-63371465D01*
X127565395Y-63600273D01*
X127533400Y-63677515D01*
X127501405Y-63600273D01*
X127348520Y-63371465D01*
X127153935Y-63176880D01*
X126925127Y-63023995D01*
X126670890Y-62918686D01*
X126400992Y-62865000D01*
X126125808Y-62865000D01*
X125855910Y-62918686D01*
X125601673Y-63023995D01*
X125372865Y-63176880D01*
X125178280Y-63371465D01*
X125025395Y-63600273D01*
X124993400Y-63677515D01*
X124961405Y-63600273D01*
X124808520Y-63371465D01*
X124613935Y-63176880D01*
X124385127Y-63023995D01*
X124130890Y-62918686D01*
X123860992Y-62865000D01*
X123585808Y-62865000D01*
X123315910Y-62918686D01*
X123061673Y-63023995D01*
X122832865Y-63176880D01*
X122638280Y-63371465D01*
X122485395Y-63600273D01*
X122453400Y-63677515D01*
X122421405Y-63600273D01*
X122268520Y-63371465D01*
X122073935Y-63176880D01*
X121845127Y-63023995D01*
X121590890Y-62918686D01*
X121320992Y-62865000D01*
X121045808Y-62865000D01*
X120775910Y-62918686D01*
X120521673Y-63023995D01*
X120292865Y-63176880D01*
X120098280Y-63371465D01*
X119945395Y-63600273D01*
X119915708Y-63671943D01*
X119911036Y-63658977D01*
X119849056Y-63543020D01*
X119608965Y-63476040D01*
X118823005Y-64262000D01*
X118463795Y-64262000D01*
X117677835Y-63476040D01*
X117437744Y-63543020D01*
X117373915Y-63678760D01*
X117341405Y-63600273D01*
X117188520Y-63371465D01*
X117113490Y-63296435D01*
X117857440Y-63296435D01*
X118643400Y-64082395D01*
X119429360Y-63296435D01*
X119362380Y-63056344D01*
X119113352Y-62939244D01*
X118846265Y-62872977D01*
X118571383Y-62860090D01*
X118299267Y-62901078D01*
X118040377Y-62994364D01*
X117924420Y-63056344D01*
X117857440Y-63296435D01*
X117113490Y-63296435D01*
X116993935Y-63176880D01*
X116765127Y-63023995D01*
X116510890Y-62918686D01*
X116240992Y-62865000D01*
X115965808Y-62865000D01*
X115695910Y-62918686D01*
X115441673Y-63023995D01*
X115212865Y-63176880D01*
X115018280Y-63371465D01*
X114865395Y-63600273D01*
X114760086Y-63854510D01*
X114706400Y-64124408D01*
X89281000Y-64124408D01*
X89281000Y-48039872D01*
X91745000Y-48039872D01*
X91745000Y-48480128D01*
X91830890Y-48911925D01*
X91999369Y-49318669D01*
X92243962Y-49684729D01*
X92555271Y-49996038D01*
X92921331Y-50240631D01*
X93328075Y-50409110D01*
X93759872Y-50495000D01*
X94200128Y-50495000D01*
X94631925Y-50409110D01*
X95038669Y-50240631D01*
X95404729Y-49996038D01*
X95716038Y-49684729D01*
X95960631Y-49318669D01*
X96129110Y-48911925D01*
X96215000Y-48480128D01*
X96215000Y-48039872D01*
X218745000Y-48039872D01*
X218745000Y-48480128D01*
X218830890Y-48911925D01*
X218999369Y-49318669D01*
X219243962Y-49684729D01*
X219555271Y-49996038D01*
X219921331Y-50240631D01*
X220328075Y-50409110D01*
X220759872Y-50495000D01*
X221200128Y-50495000D01*
X221631925Y-50409110D01*
X222038669Y-50240631D01*
X222404729Y-49996038D01*
X222716038Y-49684729D01*
X222960631Y-49318669D01*
X223129110Y-48911925D01*
X223215000Y-48480128D01*
X223215000Y-48039872D01*
X223129110Y-47608075D01*
X222960631Y-47201331D01*
X222716038Y-46835271D01*
X222404729Y-46523962D01*
X222038669Y-46279369D01*
X221631925Y-46110890D01*
X221200128Y-46025000D01*
X220759872Y-46025000D01*
X220328075Y-46110890D01*
X219921331Y-46279369D01*
X219555271Y-46523962D01*
X219243962Y-46835271D01*
X218999369Y-47201331D01*
X218830890Y-47608075D01*
X218745000Y-48039872D01*
X96215000Y-48039872D01*
X96129110Y-47608075D01*
X95960631Y-47201331D01*
X95716038Y-46835271D01*
X95404729Y-46523962D01*
X95038669Y-46279369D01*
X94631925Y-46110890D01*
X94200128Y-46025000D01*
X93759872Y-46025000D01*
X93328075Y-46110890D01*
X92921331Y-46279369D01*
X92555271Y-46523962D01*
X92243962Y-46835271D01*
X91999369Y-47201331D01*
X91830890Y-47608075D01*
X91745000Y-48039872D01*
X89281000Y-48039872D01*
X89281000Y-43617118D01*
X226441000Y-43363587D01*
X226441000Y-155376409D01*
%TA.AperFunction,Conductor*%
D23*
G36*
X226441000Y-155376409D02*
G01*
X89281000Y-154362287D01*
X89281000Y-149639872D01*
X91745000Y-149639872D01*
X91745000Y-150080128D01*
X91830890Y-150511925D01*
X91999369Y-150918669D01*
X92243962Y-151284729D01*
X92555271Y-151596038D01*
X92921331Y-151840631D01*
X93328075Y-152009110D01*
X93759872Y-152095000D01*
X94200128Y-152095000D01*
X94631925Y-152009110D01*
X95038669Y-151840631D01*
X95404729Y-151596038D01*
X95716038Y-151284729D01*
X95960631Y-150918669D01*
X96129110Y-150511925D01*
X96215000Y-150080128D01*
X96215000Y-149639872D01*
X173025000Y-149639872D01*
X173025000Y-150080128D01*
X173110890Y-150511925D01*
X173279369Y-150918669D01*
X173523962Y-151284729D01*
X173835271Y-151596038D01*
X174201331Y-151840631D01*
X174608075Y-152009110D01*
X175039872Y-152095000D01*
X175480128Y-152095000D01*
X175911925Y-152009110D01*
X176318669Y-151840631D01*
X176684729Y-151596038D01*
X176996038Y-151284729D01*
X177240631Y-150918669D01*
X177409110Y-150511925D01*
X177495000Y-150080128D01*
X177495000Y-149639872D01*
X177409110Y-149208075D01*
X177240631Y-148801331D01*
X176996038Y-148435271D01*
X176684729Y-148123962D01*
X176318669Y-147879369D01*
X175911925Y-147710890D01*
X175480128Y-147625000D01*
X175039872Y-147625000D01*
X174608075Y-147710890D01*
X174201331Y-147879369D01*
X173835271Y-148123962D01*
X173523962Y-148435271D01*
X173279369Y-148801331D01*
X173110890Y-149208075D01*
X173025000Y-149639872D01*
X96215000Y-149639872D01*
X96129110Y-149208075D01*
X95960631Y-148801331D01*
X95716038Y-148435271D01*
X95404729Y-148123962D01*
X95038669Y-147879369D01*
X94631925Y-147710890D01*
X94200128Y-147625000D01*
X93759872Y-147625000D01*
X93328075Y-147710890D01*
X92921331Y-147879369D01*
X92555271Y-148123962D01*
X92243962Y-148435271D01*
X91999369Y-148801331D01*
X91830890Y-149208075D01*
X91745000Y-149639872D01*
X89281000Y-149639872D01*
X89281000Y-133986000D01*
X107185928Y-133986000D01*
X107185928Y-135254000D01*
X107198188Y-135378482D01*
X107234498Y-135498180D01*
X107293463Y-135608494D01*
X107372815Y-135705185D01*
X107469506Y-135784537D01*
X107579820Y-135843502D01*
X107699518Y-135879812D01*
X107824000Y-135892072D01*
X109092000Y-135892072D01*
X109216482Y-135879812D01*
X109336180Y-135843502D01*
X109446494Y-135784537D01*
X109543185Y-135705185D01*
X109622537Y-135608494D01*
X109681502Y-135498180D01*
X109717812Y-135378482D01*
X109730072Y-135254000D01*
X109730072Y-134750375D01*
X109777767Y-134990154D01*
X109873427Y-135221097D01*
X110012303Y-135428940D01*
X110189060Y-135605697D01*
X110396903Y-135744573D01*
X110627846Y-135840233D01*
X110873014Y-135889000D01*
X111122986Y-135889000D01*
X111368154Y-135840233D01*
X111599097Y-135744573D01*
X111806940Y-135605697D01*
X111918552Y-135494085D01*
X112843520Y-135494085D01*
X112894963Y-135721129D01*
X113122138Y-135825422D01*
X113365295Y-135883391D01*
X113615089Y-135892808D01*
X113861920Y-135853312D01*
X114096303Y-135766420D01*
X114181037Y-135721129D01*
X114232480Y-135494085D01*
X113538000Y-134799605D01*
X112843520Y-135494085D01*
X111918552Y-135494085D01*
X111983697Y-135428940D01*
X112122573Y-135221097D01*
X112218233Y-134990154D01*
X112267000Y-134744986D01*
X112267000Y-134708388D01*
X112304688Y-134943920D01*
X112391580Y-135178303D01*
X112436871Y-135263037D01*
X112663915Y-135314480D01*
X113358395Y-134620000D01*
X113717605Y-134620000D01*
X114412085Y-135314480D01*
X114639129Y-135263037D01*
X114743422Y-135035862D01*
X114801391Y-134792705D01*
X114810808Y-134542911D01*
X114771312Y-134296080D01*
X114684420Y-134061697D01*
X114639129Y-133976963D01*
X114412085Y-133925520D01*
X113717605Y-134620000D01*
X113358395Y-134620000D01*
X112663915Y-133925520D01*
X112436871Y-133976963D01*
X112332578Y-134204138D01*
X112274609Y-134447295D01*
X112267000Y-134649130D01*
X112267000Y-134495014D01*
X112218233Y-134249846D01*
X112122573Y-134018903D01*
X111983697Y-133811060D01*
X111918552Y-133745915D01*
X112843520Y-133745915D01*
X113538000Y-134440395D01*
X114232480Y-133745915D01*
X114181037Y-133518871D01*
X113953862Y-133414578D01*
X113710705Y-133356609D01*
X113460911Y-133347192D01*
X113214080Y-133386688D01*
X112979697Y-133473580D01*
X112894963Y-133518871D01*
X112843520Y-133745915D01*
X111918552Y-133745915D01*
X111806940Y-133634303D01*
X111599097Y-133495427D01*
X111368154Y-133399767D01*
X111122986Y-133351000D01*
X110873014Y-133351000D01*
X110627846Y-133399767D01*
X110396903Y-133495427D01*
X110189060Y-133634303D01*
X110012303Y-133811060D01*
X109873427Y-134018903D01*
X109777767Y-134249846D01*
X109730072Y-134489625D01*
X109730072Y-133986000D01*
X109717812Y-133861518D01*
X109681502Y-133741820D01*
X109622537Y-133631506D01*
X109543185Y-133534815D01*
X109446494Y-133455463D01*
X109336180Y-133396498D01*
X109216482Y-133360188D01*
X109092000Y-133347928D01*
X107824000Y-133347928D01*
X107699518Y-133360188D01*
X107579820Y-133396498D01*
X107469506Y-133455463D01*
X107372815Y-133534815D01*
X107293463Y-133631506D01*
X107234498Y-133741820D01*
X107198188Y-133861518D01*
X107185928Y-133986000D01*
X89281000Y-133986000D01*
X89281000Y-116896421D01*
X98283900Y-116896421D01*
X98283900Y-117316979D01*
X98365947Y-117729456D01*
X98526888Y-118118002D01*
X98760537Y-118467683D01*
X99057917Y-118765063D01*
X99407598Y-118998712D01*
X99796144Y-119159653D01*
X100208621Y-119241700D01*
X100629179Y-119241700D01*
X101041656Y-119159653D01*
X101430202Y-118998712D01*
X101779883Y-118765063D01*
X102077263Y-118467683D01*
X102310912Y-118118002D01*
X102471853Y-117729456D01*
X102553900Y-117316979D01*
X102553900Y-116896421D01*
X102471853Y-116483944D01*
X102310912Y-116095398D01*
X102077263Y-115745717D01*
X101779883Y-115448337D01*
X101430202Y-115214688D01*
X101041656Y-115053747D01*
X100629179Y-114971700D01*
X100208621Y-114971700D01*
X99796144Y-115053747D01*
X99407598Y-115214688D01*
X99057917Y-115448337D01*
X98760537Y-115745717D01*
X98526888Y-116095398D01*
X98365947Y-116483944D01*
X98283900Y-116896421D01*
X89281000Y-116896421D01*
X89281000Y-85895721D01*
X98283900Y-85895721D01*
X98283900Y-86316279D01*
X98365947Y-86728756D01*
X98526888Y-87117302D01*
X98760537Y-87466983D01*
X99057917Y-87764363D01*
X99407598Y-87998012D01*
X99796144Y-88158953D01*
X100208621Y-88241000D01*
X100629179Y-88241000D01*
X101041656Y-88158953D01*
X101430202Y-87998012D01*
X101779883Y-87764363D01*
X102077263Y-87466983D01*
X102118010Y-87406000D01*
X104379928Y-87406000D01*
X104392188Y-87530482D01*
X104428498Y-87650180D01*
X104487463Y-87760494D01*
X104566815Y-87857185D01*
X104663506Y-87936537D01*
X104773820Y-87995502D01*
X104893518Y-88031812D01*
X105018000Y-88044072D01*
X105632250Y-88041000D01*
X105791000Y-87882250D01*
X105791000Y-86233000D01*
X104541750Y-86233000D01*
X104383000Y-86391750D01*
X104379928Y-87406000D01*
X102118010Y-87406000D01*
X102310912Y-87117302D01*
X102471853Y-86728756D01*
X102553900Y-86316279D01*
X102553900Y-85895721D01*
X102471853Y-85483244D01*
X102310912Y-85094698D01*
X102118011Y-84806000D01*
X104379928Y-84806000D01*
X104383000Y-85820250D01*
X104541750Y-85979000D01*
X105791000Y-85979000D01*
X105791000Y-84329750D01*
X106045000Y-84329750D01*
X106045000Y-85979000D01*
X106065000Y-85979000D01*
X106065000Y-86233000D01*
X106045000Y-86233000D01*
X106045000Y-87882250D01*
X106203750Y-88041000D01*
X106818000Y-88044072D01*
X106942482Y-88031812D01*
X107062180Y-87995502D01*
X107172494Y-87936537D01*
X107269185Y-87857185D01*
X107348537Y-87760494D01*
X107407502Y-87650180D01*
X107412495Y-87633720D01*
X107601074Y-87788481D01*
X107867740Y-87931017D01*
X108157088Y-88018790D01*
X108458000Y-88048427D01*
X108758913Y-88018790D01*
X109048261Y-87931017D01*
X109314927Y-87788481D01*
X109548661Y-87596661D01*
X109728000Y-87378135D01*
X109907339Y-87596661D01*
X110141074Y-87788481D01*
X110407740Y-87931017D01*
X110697088Y-88018790D01*
X110998000Y-88048427D01*
X111298913Y-88018790D01*
X111588261Y-87931017D01*
X111854927Y-87788481D01*
X112088661Y-87596661D01*
X112268000Y-87378135D01*
X112447339Y-87596661D01*
X112681074Y-87788481D01*
X112947740Y-87931017D01*
X113237088Y-88018790D01*
X113538000Y-88048427D01*
X113838913Y-88018790D01*
X114128261Y-87931017D01*
X114394927Y-87788481D01*
X114628661Y-87596661D01*
X114812781Y-87372309D01*
X114872252Y-87464396D01*
X115082394Y-87681210D01*
X115330796Y-87852862D01*
X115607913Y-87972755D01*
X115713260Y-87997036D01*
X115951000Y-87876378D01*
X115951000Y-86233000D01*
X115931000Y-86233000D01*
X115931000Y-85979000D01*
X115951000Y-85979000D01*
X115951000Y-84335622D01*
X116205000Y-84335622D01*
X116205000Y-85979000D01*
X116225000Y-85979000D01*
X116225000Y-86233000D01*
X116205000Y-86233000D01*
X116205000Y-87876378D01*
X116442740Y-87997036D01*
X116548087Y-87972755D01*
X116825204Y-87852862D01*
X117073606Y-87681210D01*
X117283748Y-87464396D01*
X117343219Y-87372309D01*
X117527339Y-87596661D01*
X117761074Y-87788481D01*
X118027740Y-87931017D01*
X118317088Y-88018790D01*
X118618000Y-88048427D01*
X118918913Y-88018790D01*
X119208261Y-87931017D01*
X119474927Y-87788481D01*
X119708661Y-87596661D01*
X119888000Y-87378135D01*
X120067339Y-87596661D01*
X120301074Y-87788481D01*
X120567740Y-87931017D01*
X120857088Y-88018790D01*
X121158000Y-88048427D01*
X121458913Y-88018790D01*
X121748261Y-87931017D01*
X122014927Y-87788481D01*
X122248661Y-87596661D01*
X122428000Y-87378135D01*
X122607339Y-87596661D01*
X122841074Y-87788481D01*
X123107740Y-87931017D01*
X123397088Y-88018790D01*
X123698000Y-88048427D01*
X123998913Y-88018790D01*
X124288261Y-87931017D01*
X124554927Y-87788481D01*
X124788661Y-87596661D01*
X124968000Y-87378135D01*
X125147339Y-87596661D01*
X125381074Y-87788481D01*
X125647740Y-87931017D01*
X125937088Y-88018790D01*
X126238000Y-88048427D01*
X126538913Y-88018790D01*
X126828261Y-87931017D01*
X127094927Y-87788481D01*
X127328661Y-87596661D01*
X127508000Y-87378135D01*
X127687339Y-87596661D01*
X127921074Y-87788481D01*
X128187740Y-87931017D01*
X128477088Y-88018790D01*
X128778000Y-88048427D01*
X129078913Y-88018790D01*
X129368261Y-87931017D01*
X129634927Y-87788481D01*
X129868661Y-87596661D01*
X130048000Y-87378135D01*
X130227339Y-87596661D01*
X130461074Y-87788481D01*
X130727740Y-87931017D01*
X131017088Y-88018790D01*
X131318000Y-88048427D01*
X131618913Y-88018790D01*
X131908261Y-87931017D01*
X132174927Y-87788481D01*
X132408661Y-87596661D01*
X132588000Y-87378135D01*
X132767339Y-87596661D01*
X133001074Y-87788481D01*
X133267740Y-87931017D01*
X133557088Y-88018790D01*
X133858000Y-88048427D01*
X134158913Y-88018790D01*
X134448261Y-87931017D01*
X134714927Y-87788481D01*
X134948661Y-87596661D01*
X135128000Y-87378135D01*
X135307339Y-87596661D01*
X135541074Y-87788481D01*
X135807740Y-87931017D01*
X136097088Y-88018790D01*
X136398000Y-88048427D01*
X136698913Y-88018790D01*
X136988261Y-87931017D01*
X137254927Y-87788481D01*
X137488661Y-87596661D01*
X137668000Y-87378135D01*
X137847339Y-87596661D01*
X138081074Y-87788481D01*
X138347740Y-87931017D01*
X138637088Y-88018790D01*
X138938000Y-88048427D01*
X139238913Y-88018790D01*
X139528261Y-87931017D01*
X139794927Y-87788481D01*
X140028661Y-87596661D01*
X140208000Y-87378135D01*
X140387339Y-87596661D01*
X140621074Y-87788481D01*
X140887740Y-87931017D01*
X141177088Y-88018790D01*
X141478000Y-88048427D01*
X141778913Y-88018790D01*
X142068261Y-87931017D01*
X142334927Y-87788481D01*
X142568661Y-87596661D01*
X142752781Y-87372309D01*
X142812252Y-87464396D01*
X143022394Y-87681210D01*
X143270796Y-87852862D01*
X143547913Y-87972755D01*
X143653260Y-87997036D01*
X143891000Y-87876378D01*
X143891000Y-86233000D01*
X144145000Y-86233000D01*
X144145000Y-87876378D01*
X144382740Y-87997036D01*
X144488087Y-87972755D01*
X144765204Y-87852862D01*
X145013606Y-87681210D01*
X145223748Y-87464396D01*
X145387554Y-87210751D01*
X145498729Y-86930023D01*
X145553000Y-86633000D01*
X145553000Y-86233000D01*
X144145000Y-86233000D01*
X143891000Y-86233000D01*
X143871000Y-86233000D01*
X143871000Y-85979000D01*
X143891000Y-85979000D01*
X143891000Y-84335622D01*
X144145000Y-84335622D01*
X144145000Y-85979000D01*
X145553000Y-85979000D01*
X145553000Y-85579000D01*
X145498729Y-85281977D01*
X145387554Y-85001249D01*
X145223748Y-84747604D01*
X145013606Y-84530790D01*
X144765204Y-84359138D01*
X144488087Y-84239245D01*
X144382740Y-84214964D01*
X144145000Y-84335622D01*
X143891000Y-84335622D01*
X143653260Y-84214964D01*
X143547913Y-84239245D01*
X143270796Y-84359138D01*
X143022394Y-84530790D01*
X142812252Y-84747604D01*
X142752781Y-84839691D01*
X142568661Y-84615339D01*
X142334926Y-84423519D01*
X142068260Y-84280983D01*
X141778912Y-84193210D01*
X141478000Y-84163573D01*
X141177087Y-84193210D01*
X140887739Y-84280983D01*
X140621073Y-84423519D01*
X140387339Y-84615339D01*
X140208000Y-84833865D01*
X140028661Y-84615339D01*
X139794926Y-84423519D01*
X139528260Y-84280983D01*
X139238912Y-84193210D01*
X138938000Y-84163573D01*
X138637087Y-84193210D01*
X138347739Y-84280983D01*
X138081073Y-84423519D01*
X137847339Y-84615339D01*
X137668000Y-84833865D01*
X137488661Y-84615339D01*
X137254926Y-84423519D01*
X136988260Y-84280983D01*
X136698912Y-84193210D01*
X136398000Y-84163573D01*
X136097087Y-84193210D01*
X135807739Y-84280983D01*
X135541073Y-84423519D01*
X135307339Y-84615339D01*
X135128000Y-84833865D01*
X134948661Y-84615339D01*
X134714926Y-84423519D01*
X134448260Y-84280983D01*
X134158912Y-84193210D01*
X133858000Y-84163573D01*
X133557087Y-84193210D01*
X133267739Y-84280983D01*
X133001073Y-84423519D01*
X132767339Y-84615339D01*
X132588000Y-84833865D01*
X132408661Y-84615339D01*
X132174926Y-84423519D01*
X131908260Y-84280983D01*
X131618912Y-84193210D01*
X131318000Y-84163573D01*
X131017087Y-84193210D01*
X130727739Y-84280983D01*
X130461073Y-84423519D01*
X130227339Y-84615339D01*
X130048000Y-84833865D01*
X129868661Y-84615339D01*
X129634926Y-84423519D01*
X129368260Y-84280983D01*
X129078912Y-84193210D01*
X128778000Y-84163573D01*
X128477087Y-84193210D01*
X128187739Y-84280983D01*
X127921073Y-84423519D01*
X127687339Y-84615339D01*
X127508000Y-84833865D01*
X127328661Y-84615339D01*
X127094926Y-84423519D01*
X126828260Y-84280983D01*
X126538912Y-84193210D01*
X126238000Y-84163573D01*
X125937087Y-84193210D01*
X125647739Y-84280983D01*
X125381073Y-84423519D01*
X125147339Y-84615339D01*
X124968000Y-84833865D01*
X124788661Y-84615339D01*
X124554926Y-84423519D01*
X124288260Y-84280983D01*
X123998912Y-84193210D01*
X123698000Y-84163573D01*
X123397087Y-84193210D01*
X123107739Y-84280983D01*
X122841073Y-84423519D01*
X122607339Y-84615339D01*
X122428000Y-84833865D01*
X122248661Y-84615339D01*
X122014926Y-84423519D01*
X121748260Y-84280983D01*
X121458912Y-84193210D01*
X121158000Y-84163573D01*
X120857087Y-84193210D01*
X120567739Y-84280983D01*
X120301073Y-84423519D01*
X120067339Y-84615339D01*
X119888000Y-84833865D01*
X119708661Y-84615339D01*
X119474926Y-84423519D01*
X119208260Y-84280983D01*
X118918912Y-84193210D01*
X118618000Y-84163573D01*
X118317087Y-84193210D01*
X118027739Y-84280983D01*
X117761073Y-84423519D01*
X117527339Y-84615339D01*
X117343219Y-84839692D01*
X117283748Y-84747604D01*
X117073606Y-84530790D01*
X116825204Y-84359138D01*
X116548087Y-84239245D01*
X116442740Y-84214964D01*
X116205000Y-84335622D01*
X115951000Y-84335622D01*
X115713260Y-84214964D01*
X115607913Y-84239245D01*
X115330796Y-84359138D01*
X115082394Y-84530790D01*
X114872252Y-84747604D01*
X114812781Y-84839691D01*
X114628661Y-84615339D01*
X114394926Y-84423519D01*
X114128260Y-84280983D01*
X113838912Y-84193210D01*
X113538000Y-84163573D01*
X113237087Y-84193210D01*
X112947739Y-84280983D01*
X112681073Y-84423519D01*
X112447339Y-84615339D01*
X112268000Y-84833865D01*
X112088661Y-84615339D01*
X111854926Y-84423519D01*
X111588260Y-84280983D01*
X111298912Y-84193210D01*
X110998000Y-84163573D01*
X110697087Y-84193210D01*
X110407739Y-84280983D01*
X110141073Y-84423519D01*
X109907339Y-84615339D01*
X109728000Y-84833865D01*
X109548661Y-84615339D01*
X109314926Y-84423519D01*
X109048260Y-84280983D01*
X108758912Y-84193210D01*
X108458000Y-84163573D01*
X108157087Y-84193210D01*
X107867739Y-84280983D01*
X107601073Y-84423519D01*
X107412495Y-84578280D01*
X107407502Y-84561820D01*
X107348537Y-84451506D01*
X107269185Y-84354815D01*
X107172494Y-84275463D01*
X107062180Y-84216498D01*
X106942482Y-84180188D01*
X106818000Y-84167928D01*
X106203750Y-84171000D01*
X106045000Y-84329750D01*
X105791000Y-84329750D01*
X105632250Y-84171000D01*
X105018000Y-84167928D01*
X104893518Y-84180188D01*
X104773820Y-84216498D01*
X104663506Y-84275463D01*
X104566815Y-84354815D01*
X104487463Y-84451506D01*
X104428498Y-84561820D01*
X104392188Y-84681518D01*
X104379928Y-84806000D01*
X102118011Y-84806000D01*
X102077263Y-84745017D01*
X101779883Y-84447637D01*
X101430202Y-84213988D01*
X101041656Y-84053047D01*
X100629179Y-83971000D01*
X100208621Y-83971000D01*
X99796144Y-84053047D01*
X99407598Y-84213988D01*
X99057917Y-84447637D01*
X98760537Y-84745017D01*
X98526888Y-85094698D01*
X98365947Y-85483244D01*
X98283900Y-85895721D01*
X89281000Y-85895721D01*
X89281000Y-65394408D01*
X112166400Y-65394408D01*
X112166400Y-65669592D01*
X112220086Y-65939490D01*
X112325395Y-66193727D01*
X112478280Y-66422535D01*
X112672865Y-66617120D01*
X112901673Y-66770005D01*
X112978915Y-66802000D01*
X112901673Y-66833995D01*
X112672865Y-66986880D01*
X112478280Y-67181465D01*
X112325395Y-67410273D01*
X112220086Y-67664510D01*
X112166400Y-67934408D01*
X112166400Y-68209592D01*
X112220086Y-68479490D01*
X112325395Y-68733727D01*
X112478280Y-68962535D01*
X112672865Y-69157120D01*
X112901673Y-69310005D01*
X112978915Y-69342000D01*
X112901673Y-69373995D01*
X112672865Y-69526880D01*
X112478280Y-69721465D01*
X112325395Y-69950273D01*
X112220086Y-70204510D01*
X112166400Y-70474408D01*
X112166400Y-70749592D01*
X112220086Y-71019490D01*
X112325395Y-71273727D01*
X112478280Y-71502535D01*
X112672865Y-71697120D01*
X112901673Y-71850005D01*
X112978915Y-71882000D01*
X112901673Y-71913995D01*
X112672865Y-72066880D01*
X112478280Y-72261465D01*
X112325395Y-72490273D01*
X112220086Y-72744510D01*
X112166400Y-73014408D01*
X112166400Y-73289592D01*
X112220086Y-73559490D01*
X112325395Y-73813727D01*
X112478280Y-74042535D01*
X112672865Y-74237120D01*
X112901673Y-74390005D01*
X112978915Y-74422000D01*
X112901673Y-74453995D01*
X112672865Y-74606880D01*
X112478280Y-74801465D01*
X112325395Y-75030273D01*
X112220086Y-75284510D01*
X112166400Y-75554408D01*
X112166400Y-75829592D01*
X112220086Y-76099490D01*
X112325395Y-76353727D01*
X112478280Y-76582535D01*
X112672865Y-76777120D01*
X112901673Y-76930005D01*
X112978915Y-76962000D01*
X112901673Y-76993995D01*
X112672865Y-77146880D01*
X112478280Y-77341465D01*
X112325395Y-77570273D01*
X112220086Y-77824510D01*
X112166400Y-78094408D01*
X112166400Y-78369592D01*
X112220086Y-78639490D01*
X112325395Y-78893727D01*
X112478280Y-79122535D01*
X112672865Y-79317120D01*
X112901673Y-79470005D01*
X113155910Y-79575314D01*
X113425808Y-79629000D01*
X113700992Y-79629000D01*
X113970890Y-79575314D01*
X114225127Y-79470005D01*
X114383163Y-79364408D01*
X114706400Y-79364408D01*
X114706400Y-79639592D01*
X114760086Y-79909490D01*
X114865395Y-80163727D01*
X115018280Y-80392535D01*
X115212865Y-80587120D01*
X115441673Y-80740005D01*
X115695910Y-80845314D01*
X115965808Y-80899000D01*
X116240992Y-80899000D01*
X116510890Y-80845314D01*
X116765127Y-80740005D01*
X116993935Y-80587120D01*
X117188520Y-80392535D01*
X117341405Y-80163727D01*
X117373400Y-80086485D01*
X117405395Y-80163727D01*
X117558280Y-80392535D01*
X117752865Y-80587120D01*
X117981673Y-80740005D01*
X118235910Y-80845314D01*
X118505808Y-80899000D01*
X118780992Y-80899000D01*
X119050890Y-80845314D01*
X119305127Y-80740005D01*
X119533935Y-80587120D01*
X119728520Y-80392535D01*
X119881405Y-80163727D01*
X119913400Y-80086485D01*
X119945395Y-80163727D01*
X120098280Y-80392535D01*
X120292865Y-80587120D01*
X120521673Y-80740005D01*
X120775910Y-80845314D01*
X121045808Y-80899000D01*
X121320992Y-80899000D01*
X121590890Y-80845314D01*
X121845127Y-80740005D01*
X122073935Y-80587120D01*
X122268520Y-80392535D01*
X122421405Y-80163727D01*
X122453400Y-80086485D01*
X122485395Y-80163727D01*
X122638280Y-80392535D01*
X122832865Y-80587120D01*
X123061673Y-80740005D01*
X123315910Y-80845314D01*
X123585808Y-80899000D01*
X123860992Y-80899000D01*
X124130890Y-80845314D01*
X124385127Y-80740005D01*
X124613935Y-80587120D01*
X124808520Y-80392535D01*
X124961405Y-80163727D01*
X124993400Y-80086485D01*
X125025395Y-80163727D01*
X125178280Y-80392535D01*
X125372865Y-80587120D01*
X125601673Y-80740005D01*
X125855910Y-80845314D01*
X126125808Y-80899000D01*
X126400992Y-80899000D01*
X126670890Y-80845314D01*
X126925127Y-80740005D01*
X127153935Y-80587120D01*
X127348520Y-80392535D01*
X127501405Y-80163727D01*
X127533400Y-80086485D01*
X127565395Y-80163727D01*
X127718280Y-80392535D01*
X127912865Y-80587120D01*
X128141673Y-80740005D01*
X128395910Y-80845314D01*
X128665808Y-80899000D01*
X128940992Y-80899000D01*
X129210890Y-80845314D01*
X129465127Y-80740005D01*
X129693935Y-80587120D01*
X129888520Y-80392535D01*
X130041405Y-80163727D01*
X130073400Y-80086485D01*
X130105395Y-80163727D01*
X130258280Y-80392535D01*
X130452865Y-80587120D01*
X130681673Y-80740005D01*
X130935910Y-80845314D01*
X131205808Y-80899000D01*
X131480992Y-80899000D01*
X131750890Y-80845314D01*
X132005127Y-80740005D01*
X132233935Y-80587120D01*
X132428520Y-80392535D01*
X132581405Y-80163727D01*
X132613400Y-80086485D01*
X132645395Y-80163727D01*
X132798280Y-80392535D01*
X132992865Y-80587120D01*
X133221673Y-80740005D01*
X133475910Y-80845314D01*
X133745808Y-80899000D01*
X134020992Y-80899000D01*
X134290890Y-80845314D01*
X134545127Y-80740005D01*
X134773935Y-80587120D01*
X134968520Y-80392535D01*
X135121405Y-80163727D01*
X135153400Y-80086485D01*
X135185395Y-80163727D01*
X135338280Y-80392535D01*
X135532865Y-80587120D01*
X135761673Y-80740005D01*
X136015910Y-80845314D01*
X136285808Y-80899000D01*
X136560992Y-80899000D01*
X136830890Y-80845314D01*
X137085127Y-80740005D01*
X137313935Y-80587120D01*
X137508520Y-80392535D01*
X137661405Y-80163727D01*
X137693400Y-80086485D01*
X137725395Y-80163727D01*
X137878280Y-80392535D01*
X138072865Y-80587120D01*
X138301673Y-80740005D01*
X138555910Y-80845314D01*
X138825808Y-80899000D01*
X139100992Y-80899000D01*
X139370890Y-80845314D01*
X139625127Y-80740005D01*
X139853935Y-80587120D01*
X140048520Y-80392535D01*
X140201405Y-80163727D01*
X140233400Y-80086485D01*
X140265395Y-80163727D01*
X140418280Y-80392535D01*
X140612865Y-80587120D01*
X140841673Y-80740005D01*
X141095910Y-80845314D01*
X141365808Y-80899000D01*
X141640992Y-80899000D01*
X141910890Y-80845314D01*
X142165127Y-80740005D01*
X142393935Y-80587120D01*
X142588520Y-80392535D01*
X142741405Y-80163727D01*
X142773400Y-80086485D01*
X142805395Y-80163727D01*
X142958280Y-80392535D01*
X143152865Y-80587120D01*
X143381673Y-80740005D01*
X143635910Y-80845314D01*
X143905808Y-80899000D01*
X144180992Y-80899000D01*
X144450890Y-80845314D01*
X144705127Y-80740005D01*
X144933935Y-80587120D01*
X145128520Y-80392535D01*
X145281405Y-80163727D01*
X145386714Y-79909490D01*
X145440400Y-79639592D01*
X145440400Y-79364408D01*
X145386714Y-79094510D01*
X145281405Y-78840273D01*
X145128520Y-78611465D01*
X144933935Y-78416880D01*
X144705127Y-78263995D01*
X144450890Y-78158686D01*
X144180992Y-78105000D01*
X143905808Y-78105000D01*
X143635910Y-78158686D01*
X143381673Y-78263995D01*
X143152865Y-78416880D01*
X142958280Y-78611465D01*
X142805395Y-78840273D01*
X142773400Y-78917515D01*
X142741405Y-78840273D01*
X142588520Y-78611465D01*
X142393935Y-78416880D01*
X142165127Y-78263995D01*
X141910890Y-78158686D01*
X141640992Y-78105000D01*
X141365808Y-78105000D01*
X141095910Y-78158686D01*
X140841673Y-78263995D01*
X140612865Y-78416880D01*
X140418280Y-78611465D01*
X140265395Y-78840273D01*
X140233400Y-78917515D01*
X140201405Y-78840273D01*
X140048520Y-78611465D01*
X139853935Y-78416880D01*
X139625127Y-78263995D01*
X139370890Y-78158686D01*
X139100992Y-78105000D01*
X138825808Y-78105000D01*
X138555910Y-78158686D01*
X138301673Y-78263995D01*
X138072865Y-78416880D01*
X137878280Y-78611465D01*
X137725395Y-78840273D01*
X137693400Y-78917515D01*
X137661405Y-78840273D01*
X137508520Y-78611465D01*
X137313935Y-78416880D01*
X137085127Y-78263995D01*
X136830890Y-78158686D01*
X136560992Y-78105000D01*
X136285808Y-78105000D01*
X136015910Y-78158686D01*
X135761673Y-78263995D01*
X135532865Y-78416880D01*
X135338280Y-78611465D01*
X135185395Y-78840273D01*
X135153400Y-78917515D01*
X135121405Y-78840273D01*
X134968520Y-78611465D01*
X134773935Y-78416880D01*
X134545127Y-78263995D01*
X134290890Y-78158686D01*
X134020992Y-78105000D01*
X133745808Y-78105000D01*
X133475910Y-78158686D01*
X133221673Y-78263995D01*
X132992865Y-78416880D01*
X132798280Y-78611465D01*
X132645395Y-78840273D01*
X132613400Y-78917515D01*
X132581405Y-78840273D01*
X132428520Y-78611465D01*
X132233935Y-78416880D01*
X132005127Y-78263995D01*
X131750890Y-78158686D01*
X131480992Y-78105000D01*
X131205808Y-78105000D01*
X130935910Y-78158686D01*
X130681673Y-78263995D01*
X130452865Y-78416880D01*
X130258280Y-78611465D01*
X130105395Y-78840273D01*
X130073400Y-78917515D01*
X130041405Y-78840273D01*
X129888520Y-78611465D01*
X129693935Y-78416880D01*
X129465127Y-78263995D01*
X129210890Y-78158686D01*
X128940992Y-78105000D01*
X128665808Y-78105000D01*
X128395910Y-78158686D01*
X128141673Y-78263995D01*
X127912865Y-78416880D01*
X127718280Y-78611465D01*
X127565395Y-78840273D01*
X127533400Y-78917515D01*
X127501405Y-78840273D01*
X127348520Y-78611465D01*
X127153935Y-78416880D01*
X126925127Y-78263995D01*
X126670890Y-78158686D01*
X126400992Y-78105000D01*
X126125808Y-78105000D01*
X125855910Y-78158686D01*
X125601673Y-78263995D01*
X125372865Y-78416880D01*
X125178280Y-78611465D01*
X125025395Y-78840273D01*
X124993400Y-78917515D01*
X124961405Y-78840273D01*
X124808520Y-78611465D01*
X124613935Y-78416880D01*
X124385127Y-78263995D01*
X124130890Y-78158686D01*
X123860992Y-78105000D01*
X123585808Y-78105000D01*
X123315910Y-78158686D01*
X123061673Y-78263995D01*
X122832865Y-78416880D01*
X122638280Y-78611465D01*
X122485395Y-78840273D01*
X122453400Y-78917515D01*
X122421405Y-78840273D01*
X122268520Y-78611465D01*
X122073935Y-78416880D01*
X121845127Y-78263995D01*
X121590890Y-78158686D01*
X121320992Y-78105000D01*
X121045808Y-78105000D01*
X120775910Y-78158686D01*
X120521673Y-78263995D01*
X120292865Y-78416880D01*
X120098280Y-78611465D01*
X119945395Y-78840273D01*
X119913400Y-78917515D01*
X119881405Y-78840273D01*
X119728520Y-78611465D01*
X119533935Y-78416880D01*
X119305127Y-78263995D01*
X119050890Y-78158686D01*
X118780992Y-78105000D01*
X118505808Y-78105000D01*
X118235910Y-78158686D01*
X117981673Y-78263995D01*
X117752865Y-78416880D01*
X117558280Y-78611465D01*
X117405395Y-78840273D01*
X117373400Y-78917515D01*
X117341405Y-78840273D01*
X117188520Y-78611465D01*
X116993935Y-78416880D01*
X116765127Y-78263995D01*
X116510890Y-78158686D01*
X116240992Y-78105000D01*
X115965808Y-78105000D01*
X115695910Y-78158686D01*
X115441673Y-78263995D01*
X115212865Y-78416880D01*
X115018280Y-78611465D01*
X114865395Y-78840273D01*
X114760086Y-79094510D01*
X114706400Y-79364408D01*
X114383163Y-79364408D01*
X114453935Y-79317120D01*
X114648520Y-79122535D01*
X114801405Y-78893727D01*
X114906714Y-78639490D01*
X114960400Y-78369592D01*
X114960400Y-78094408D01*
X114906714Y-77824510D01*
X114801405Y-77570273D01*
X114648520Y-77341465D01*
X114453935Y-77146880D01*
X114225127Y-76993995D01*
X114147885Y-76962000D01*
X114225127Y-76930005D01*
X114453935Y-76777120D01*
X114648520Y-76582535D01*
X114801405Y-76353727D01*
X114906714Y-76099490D01*
X114960400Y-75829592D01*
X114960400Y-75554408D01*
X114906714Y-75284510D01*
X114801405Y-75030273D01*
X114648520Y-74801465D01*
X114453935Y-74606880D01*
X114225127Y-74453995D01*
X114147885Y-74422000D01*
X114225127Y-74390005D01*
X114453935Y-74237120D01*
X114648520Y-74042535D01*
X114801405Y-73813727D01*
X114906714Y-73559490D01*
X114960400Y-73289592D01*
X114960400Y-73014408D01*
X114906714Y-72744510D01*
X114801405Y-72490273D01*
X114648520Y-72261465D01*
X114453935Y-72066880D01*
X114225127Y-71913995D01*
X114147885Y-71882000D01*
X114225127Y-71850005D01*
X114453935Y-71697120D01*
X114648520Y-71502535D01*
X114801405Y-71273727D01*
X114906714Y-71019490D01*
X114960400Y-70749592D01*
X114960400Y-70474408D01*
X114906714Y-70204510D01*
X114801405Y-69950273D01*
X114648520Y-69721465D01*
X114453935Y-69526880D01*
X114225127Y-69373995D01*
X114147885Y-69342000D01*
X114225127Y-69310005D01*
X114453935Y-69157120D01*
X114648520Y-68962535D01*
X114801405Y-68733727D01*
X114906714Y-68479490D01*
X114960400Y-68209592D01*
X114960400Y-67934408D01*
X114906714Y-67664510D01*
X114801405Y-67410273D01*
X114648520Y-67181465D01*
X114513644Y-67046589D01*
X123481400Y-67046589D01*
X123481400Y-67319411D01*
X123534625Y-67586989D01*
X123639029Y-67839043D01*
X123790601Y-68065886D01*
X123983514Y-68258799D01*
X124210357Y-68410371D01*
X124462411Y-68514775D01*
X124729989Y-68568000D01*
X125002811Y-68568000D01*
X125270389Y-68514775D01*
X125522443Y-68410371D01*
X125749286Y-68258799D01*
X125942199Y-68065886D01*
X126093771Y-67839043D01*
X126136400Y-67736127D01*
X126179029Y-67839043D01*
X126330601Y-68065886D01*
X126523514Y-68258799D01*
X126750357Y-68410371D01*
X127002411Y-68514775D01*
X127269989Y-68568000D01*
X127542811Y-68568000D01*
X127810389Y-68514775D01*
X128062443Y-68410371D01*
X128289286Y-68258799D01*
X128482199Y-68065886D01*
X128633771Y-67839043D01*
X128738175Y-67586989D01*
X128791400Y-67319411D01*
X128791400Y-67046589D01*
X133895400Y-67046589D01*
X133895400Y-67319411D01*
X133948625Y-67586989D01*
X134053029Y-67839043D01*
X134204601Y-68065886D01*
X134397514Y-68258799D01*
X134624357Y-68410371D01*
X134876411Y-68514775D01*
X135143989Y-68568000D01*
X135416811Y-68568000D01*
X135684389Y-68514775D01*
X135936443Y-68410371D01*
X136163286Y-68258799D01*
X136356199Y-68065886D01*
X136507771Y-67839043D01*
X136550400Y-67736127D01*
X136593029Y-67839043D01*
X136744601Y-68065886D01*
X136937514Y-68258799D01*
X137164357Y-68410371D01*
X137416411Y-68514775D01*
X137683989Y-68568000D01*
X137956811Y-68568000D01*
X138224389Y-68514775D01*
X138476443Y-68410371D01*
X138703286Y-68258799D01*
X138896199Y-68065886D01*
X139047771Y-67839043D01*
X139152175Y-67586989D01*
X139205400Y-67319411D01*
X139205400Y-67046589D01*
X139152175Y-66779011D01*
X139047771Y-66526957D01*
X138896199Y-66300114D01*
X138703286Y-66107201D01*
X138476443Y-65955629D01*
X138224389Y-65851225D01*
X137956811Y-65798000D01*
X137683989Y-65798000D01*
X137416411Y-65851225D01*
X137164357Y-65955629D01*
X136937514Y-66107201D01*
X136744601Y-66300114D01*
X136593029Y-66526957D01*
X136550400Y-66629873D01*
X136507771Y-66526957D01*
X136356199Y-66300114D01*
X136163286Y-66107201D01*
X135936443Y-65955629D01*
X135684389Y-65851225D01*
X135416811Y-65798000D01*
X135143989Y-65798000D01*
X134876411Y-65851225D01*
X134624357Y-65955629D01*
X134397514Y-66107201D01*
X134204601Y-66300114D01*
X134053029Y-66526957D01*
X133948625Y-66779011D01*
X133895400Y-67046589D01*
X128791400Y-67046589D01*
X128738175Y-66779011D01*
X128633771Y-66526957D01*
X128482199Y-66300114D01*
X128289286Y-66107201D01*
X128062443Y-65955629D01*
X127810389Y-65851225D01*
X127542811Y-65798000D01*
X127269989Y-65798000D01*
X127002411Y-65851225D01*
X126750357Y-65955629D01*
X126523514Y-66107201D01*
X126330601Y-66300114D01*
X126179029Y-66526957D01*
X126136400Y-66629873D01*
X126093771Y-66526957D01*
X125942199Y-66300114D01*
X125749286Y-66107201D01*
X125522443Y-65955629D01*
X125270389Y-65851225D01*
X125002811Y-65798000D01*
X124729989Y-65798000D01*
X124462411Y-65851225D01*
X124210357Y-65955629D01*
X123983514Y-66107201D01*
X123790601Y-66300114D01*
X123639029Y-66526957D01*
X123534625Y-66779011D01*
X123481400Y-67046589D01*
X114513644Y-67046589D01*
X114453935Y-66986880D01*
X114225127Y-66833995D01*
X114147885Y-66802000D01*
X114225127Y-66770005D01*
X114453935Y-66617120D01*
X114648520Y-66422535D01*
X114801405Y-66193727D01*
X114906714Y-65939490D01*
X114960400Y-65669592D01*
X114960400Y-65394408D01*
X114906714Y-65124510D01*
X114801405Y-64870273D01*
X114648520Y-64641465D01*
X114453935Y-64446880D01*
X114225127Y-64293995D01*
X113970890Y-64188686D01*
X113700992Y-64135000D01*
X113425808Y-64135000D01*
X113155910Y-64188686D01*
X112901673Y-64293995D01*
X112672865Y-64446880D01*
X112478280Y-64641465D01*
X112325395Y-64870273D01*
X112220086Y-65124510D01*
X112166400Y-65394408D01*
X89281000Y-65394408D01*
X89281000Y-64124408D01*
X114706400Y-64124408D01*
X114706400Y-64399592D01*
X114760086Y-64669490D01*
X114865395Y-64923727D01*
X115018280Y-65152535D01*
X115212865Y-65347120D01*
X115441673Y-65500005D01*
X115695910Y-65605314D01*
X115965808Y-65659000D01*
X116240992Y-65659000D01*
X116510890Y-65605314D01*
X116765127Y-65500005D01*
X116993935Y-65347120D01*
X117113490Y-65227565D01*
X117857440Y-65227565D01*
X117924420Y-65467656D01*
X118173448Y-65584756D01*
X118440535Y-65651023D01*
X118715417Y-65663910D01*
X118987533Y-65622922D01*
X119246423Y-65529636D01*
X119362380Y-65467656D01*
X119429360Y-65227565D01*
X118643400Y-64441605D01*
X117857440Y-65227565D01*
X117113490Y-65227565D01*
X117188520Y-65152535D01*
X117341405Y-64923727D01*
X117371092Y-64852057D01*
X117375764Y-64865023D01*
X117437744Y-64980980D01*
X117677835Y-65047960D01*
X118463795Y-64262000D01*
X118823005Y-64262000D01*
X119608965Y-65047960D01*
X119849056Y-64980980D01*
X119912885Y-64845240D01*
X119945395Y-64923727D01*
X120098280Y-65152535D01*
X120292865Y-65347120D01*
X120521673Y-65500005D01*
X120775910Y-65605314D01*
X121045808Y-65659000D01*
X121320992Y-65659000D01*
X121590890Y-65605314D01*
X121845127Y-65500005D01*
X122073935Y-65347120D01*
X122268520Y-65152535D01*
X122421405Y-64923727D01*
X122453400Y-64846485D01*
X122485395Y-64923727D01*
X122638280Y-65152535D01*
X122832865Y-65347120D01*
X123061673Y-65500005D01*
X123315910Y-65605314D01*
X123585808Y-65659000D01*
X123860992Y-65659000D01*
X124130890Y-65605314D01*
X124385127Y-65500005D01*
X124613935Y-65347120D01*
X124808520Y-65152535D01*
X124961405Y-64923727D01*
X124993400Y-64846485D01*
X125025395Y-64923727D01*
X125178280Y-65152535D01*
X125372865Y-65347120D01*
X125601673Y-65500005D01*
X125855910Y-65605314D01*
X126125808Y-65659000D01*
X126400992Y-65659000D01*
X126670890Y-65605314D01*
X126925127Y-65500005D01*
X127153935Y-65347120D01*
X127348520Y-65152535D01*
X127501405Y-64923727D01*
X127533400Y-64846485D01*
X127565395Y-64923727D01*
X127718280Y-65152535D01*
X127912865Y-65347120D01*
X128141673Y-65500005D01*
X128395910Y-65605314D01*
X128665808Y-65659000D01*
X128940992Y-65659000D01*
X129210890Y-65605314D01*
X129465127Y-65500005D01*
X129693935Y-65347120D01*
X129888520Y-65152535D01*
X130041405Y-64923727D01*
X130073400Y-64846485D01*
X130105395Y-64923727D01*
X130258280Y-65152535D01*
X130452865Y-65347120D01*
X130681673Y-65500005D01*
X130935910Y-65605314D01*
X131205808Y-65659000D01*
X131480992Y-65659000D01*
X131750890Y-65605314D01*
X132005127Y-65500005D01*
X132233935Y-65347120D01*
X132428520Y-65152535D01*
X132581405Y-64923727D01*
X132613400Y-64846485D01*
X132645395Y-64923727D01*
X132798280Y-65152535D01*
X132992865Y-65347120D01*
X133221673Y-65500005D01*
X133475910Y-65605314D01*
X133745808Y-65659000D01*
X134020992Y-65659000D01*
X134290890Y-65605314D01*
X134545127Y-65500005D01*
X134773935Y-65347120D01*
X134968520Y-65152535D01*
X135121405Y-64923727D01*
X135153400Y-64846485D01*
X135185395Y-64923727D01*
X135338280Y-65152535D01*
X135532865Y-65347120D01*
X135761673Y-65500005D01*
X136015910Y-65605314D01*
X136285808Y-65659000D01*
X136560992Y-65659000D01*
X136830890Y-65605314D01*
X137085127Y-65500005D01*
X137313935Y-65347120D01*
X137508520Y-65152535D01*
X137661405Y-64923727D01*
X137693400Y-64846485D01*
X137725395Y-64923727D01*
X137878280Y-65152535D01*
X138072865Y-65347120D01*
X138301673Y-65500005D01*
X138555910Y-65605314D01*
X138825808Y-65659000D01*
X139100992Y-65659000D01*
X139370890Y-65605314D01*
X139625127Y-65500005D01*
X139853935Y-65347120D01*
X140048520Y-65152535D01*
X140201405Y-64923727D01*
X140233400Y-64846485D01*
X140265395Y-64923727D01*
X140418280Y-65152535D01*
X140612865Y-65347120D01*
X140841673Y-65500005D01*
X141095910Y-65605314D01*
X141365808Y-65659000D01*
X141640992Y-65659000D01*
X141910890Y-65605314D01*
X142165127Y-65500005D01*
X142393935Y-65347120D01*
X142588520Y-65152535D01*
X142741405Y-64923727D01*
X142773400Y-64846485D01*
X142805395Y-64923727D01*
X142958280Y-65152535D01*
X143152865Y-65347120D01*
X143381673Y-65500005D01*
X143635910Y-65605314D01*
X143905808Y-65659000D01*
X144180992Y-65659000D01*
X144450890Y-65605314D01*
X144705127Y-65500005D01*
X144933935Y-65347120D01*
X145128520Y-65152535D01*
X145281405Y-64923727D01*
X145386714Y-64669490D01*
X145440400Y-64399592D01*
X145440400Y-64124408D01*
X145386714Y-63854510D01*
X145281405Y-63600273D01*
X145128520Y-63371465D01*
X144933935Y-63176880D01*
X144705127Y-63023995D01*
X144450890Y-62918686D01*
X144180992Y-62865000D01*
X143905808Y-62865000D01*
X143635910Y-62918686D01*
X143381673Y-63023995D01*
X143152865Y-63176880D01*
X142958280Y-63371465D01*
X142805395Y-63600273D01*
X142773400Y-63677515D01*
X142741405Y-63600273D01*
X142588520Y-63371465D01*
X142393935Y-63176880D01*
X142165127Y-63023995D01*
X141910890Y-62918686D01*
X141640992Y-62865000D01*
X141365808Y-62865000D01*
X141095910Y-62918686D01*
X140841673Y-63023995D01*
X140612865Y-63176880D01*
X140418280Y-63371465D01*
X140265395Y-63600273D01*
X140233400Y-63677515D01*
X140201405Y-63600273D01*
X140048520Y-63371465D01*
X139853935Y-63176880D01*
X139625127Y-63023995D01*
X139370890Y-62918686D01*
X139100992Y-62865000D01*
X138825808Y-62865000D01*
X138555910Y-62918686D01*
X138301673Y-63023995D01*
X138072865Y-63176880D01*
X137878280Y-63371465D01*
X137725395Y-63600273D01*
X137693400Y-63677515D01*
X137661405Y-63600273D01*
X137508520Y-63371465D01*
X137313935Y-63176880D01*
X137183400Y-63089659D01*
X137183400Y-61503401D01*
X139758802Y-58928000D01*
X158180370Y-58928000D01*
X161290000Y-62037631D01*
X161290001Y-137884565D01*
X161290000Y-137884575D01*
X161290001Y-138463422D01*
X161290000Y-142589386D01*
X161159552Y-142676549D01*
X160964549Y-142871552D01*
X160811336Y-143100851D01*
X160782000Y-143171674D01*
X160752664Y-143100851D01*
X160599451Y-142871552D01*
X160404448Y-142676549D01*
X160175149Y-142523336D01*
X159920365Y-142417801D01*
X159649888Y-142364000D01*
X159374112Y-142364000D01*
X159103635Y-142417801D01*
X158848851Y-142523336D01*
X158619552Y-142676549D01*
X158424549Y-142871552D01*
X158271336Y-143100851D01*
X158242000Y-143171674D01*
X158212664Y-143100851D01*
X158059451Y-142871552D01*
X157864448Y-142676549D01*
X157635149Y-142523336D01*
X157380365Y-142417801D01*
X157109888Y-142364000D01*
X156834112Y-142364000D01*
X156563635Y-142417801D01*
X156308851Y-142523336D01*
X156079552Y-142676549D01*
X155884549Y-142871552D01*
X155731336Y-143100851D01*
X155625801Y-143355635D01*
X155572000Y-143626112D01*
X155572000Y-143901888D01*
X155625801Y-144172365D01*
X155731336Y-144427149D01*
X155884549Y-144656448D01*
X156079552Y-144851451D01*
X156308851Y-145004664D01*
X156563635Y-145110199D01*
X156834112Y-145164000D01*
X157109888Y-145164000D01*
X157380365Y-145110199D01*
X157635149Y-145004664D01*
X157864448Y-144851451D01*
X158059451Y-144656448D01*
X158212664Y-144427149D01*
X158242000Y-144356326D01*
X158271336Y-144427149D01*
X158424549Y-144656448D01*
X158619552Y-144851451D01*
X158848851Y-145004664D01*
X159103635Y-145110199D01*
X159374112Y-145164000D01*
X159649888Y-145164000D01*
X159920365Y-145110199D01*
X160175149Y-145004664D01*
X160404448Y-144851451D01*
X160599451Y-144656448D01*
X160752664Y-144427149D01*
X160782000Y-144356326D01*
X160811336Y-144427149D01*
X160964549Y-144656448D01*
X161159552Y-144851451D01*
X161388851Y-145004664D01*
X161643635Y-145110199D01*
X161914112Y-145164000D01*
X162189888Y-145164000D01*
X162460365Y-145110199D01*
X162715149Y-145004664D01*
X162944448Y-144851451D01*
X163064192Y-144731707D01*
X163803898Y-144731707D01*
X163871240Y-144972106D01*
X164120780Y-145089506D01*
X164388427Y-145155967D01*
X164663899Y-145168936D01*
X164936607Y-145127914D01*
X165196072Y-145034478D01*
X165312760Y-144972106D01*
X165380102Y-144731707D01*
X164592000Y-143943605D01*
X163803898Y-144731707D01*
X163064192Y-144731707D01*
X163139451Y-144656448D01*
X163292664Y-144427149D01*
X163319482Y-144362406D01*
X163321522Y-144368072D01*
X163383894Y-144484760D01*
X163624293Y-144552102D01*
X164412395Y-143764000D01*
X164771605Y-143764000D01*
X165559707Y-144552102D01*
X165800106Y-144484760D01*
X165917506Y-144235220D01*
X165983967Y-143967573D01*
X165996936Y-143692101D01*
X165955914Y-143419393D01*
X165862478Y-143159928D01*
X165800106Y-143043240D01*
X165559707Y-142975898D01*
X164771605Y-143764000D01*
X164412395Y-143764000D01*
X163624293Y-142975898D01*
X163383894Y-143043240D01*
X163322688Y-143173336D01*
X163292664Y-143100851D01*
X163139451Y-142871552D01*
X163064192Y-142796293D01*
X163803898Y-142796293D01*
X164592000Y-143584395D01*
X165380102Y-142796293D01*
X165312760Y-142555894D01*
X165063220Y-142438494D01*
X164795573Y-142372033D01*
X164520101Y-142359064D01*
X164247393Y-142400086D01*
X163987928Y-142493522D01*
X163871240Y-142555894D01*
X163803898Y-142796293D01*
X163064192Y-142796293D01*
X162944448Y-142676549D01*
X162814000Y-142589386D01*
X162814000Y-135229419D01*
X191435000Y-135229419D01*
X191435000Y-135610581D01*
X191509361Y-135984419D01*
X191655225Y-136336566D01*
X191866987Y-136653491D01*
X192136509Y-136923013D01*
X192453434Y-137134775D01*
X192805581Y-137280639D01*
X193179419Y-137355000D01*
X193560581Y-137355000D01*
X193934419Y-137280639D01*
X194286566Y-137134775D01*
X194603491Y-136923013D01*
X194873013Y-136653491D01*
X195084775Y-136336566D01*
X195230639Y-135984419D01*
X195305000Y-135610581D01*
X195305000Y-135229419D01*
X195230639Y-134855581D01*
X195084775Y-134503434D01*
X194873013Y-134186509D01*
X194603491Y-133916987D01*
X194286566Y-133705225D01*
X193934419Y-133559361D01*
X193560581Y-133485000D01*
X193179419Y-133485000D01*
X192805581Y-133559361D01*
X192453434Y-133705225D01*
X192136509Y-133916987D01*
X191866987Y-134186509D01*
X191655225Y-134503434D01*
X191509361Y-134855581D01*
X191435000Y-135229419D01*
X162814000Y-135229419D01*
X162814000Y-120479419D01*
X213635000Y-120479419D01*
X213635000Y-120860581D01*
X213709361Y-121234419D01*
X213855225Y-121586566D01*
X214066987Y-121903491D01*
X214336509Y-122173013D01*
X214653434Y-122384775D01*
X215005581Y-122530639D01*
X215379419Y-122605000D01*
X215760581Y-122605000D01*
X216134419Y-122530639D01*
X216486566Y-122384775D01*
X216803491Y-122173013D01*
X217073013Y-121903491D01*
X217284775Y-121586566D01*
X217430639Y-121234419D01*
X217505000Y-120860581D01*
X217505000Y-120479419D01*
X217430639Y-120105581D01*
X217284775Y-119753434D01*
X217073013Y-119436509D01*
X216803491Y-119166987D01*
X216486566Y-118955225D01*
X216134419Y-118809361D01*
X215760581Y-118735000D01*
X215379419Y-118735000D01*
X215005581Y-118809361D01*
X214653434Y-118955225D01*
X214336509Y-119166987D01*
X214066987Y-119436509D01*
X213855225Y-119753434D01*
X213709361Y-120105581D01*
X213635000Y-120479419D01*
X162814000Y-120479419D01*
X162814000Y-116896421D01*
X173282480Y-116896421D01*
X173282480Y-117316979D01*
X173364527Y-117729456D01*
X173525468Y-118118002D01*
X173759117Y-118467683D01*
X174056497Y-118765063D01*
X174406178Y-118998712D01*
X174794724Y-119159653D01*
X175207201Y-119241700D01*
X175627759Y-119241700D01*
X176040236Y-119159653D01*
X176428782Y-118998712D01*
X176778463Y-118765063D01*
X177075843Y-118467683D01*
X177309492Y-118118002D01*
X177470433Y-117729456D01*
X177552480Y-117316979D01*
X177552480Y-116896421D01*
X177470433Y-116483944D01*
X177309492Y-116095398D01*
X177075843Y-115745717D01*
X176778463Y-115448337D01*
X176428782Y-115214688D01*
X176040236Y-115053747D01*
X175627759Y-114971700D01*
X175207201Y-114971700D01*
X174794724Y-115053747D01*
X174406178Y-115214688D01*
X174056497Y-115448337D01*
X173759117Y-115745717D01*
X173525468Y-116095398D01*
X173364527Y-116483944D01*
X173282480Y-116896421D01*
X162814000Y-116896421D01*
X162814000Y-107229419D01*
X191435000Y-107229419D01*
X191435000Y-107610581D01*
X191509361Y-107984419D01*
X191655225Y-108336566D01*
X191866987Y-108653491D01*
X192136509Y-108923013D01*
X192453434Y-109134775D01*
X192805581Y-109280639D01*
X193179419Y-109355000D01*
X193560581Y-109355000D01*
X193934419Y-109280639D01*
X194286566Y-109134775D01*
X194603491Y-108923013D01*
X194873013Y-108653491D01*
X195084775Y-108336566D01*
X195230639Y-107984419D01*
X195305000Y-107610581D01*
X195305000Y-107229419D01*
X195230639Y-106855581D01*
X195084775Y-106503434D01*
X194873013Y-106186509D01*
X194603491Y-105916987D01*
X194286566Y-105705225D01*
X193934419Y-105559361D01*
X193560581Y-105485000D01*
X193179419Y-105485000D01*
X192805581Y-105559361D01*
X192453434Y-105705225D01*
X192136509Y-105916987D01*
X191866987Y-106186509D01*
X191655225Y-106503434D01*
X191509361Y-106855581D01*
X191435000Y-107229419D01*
X162814000Y-107229419D01*
X162814000Y-98011653D01*
X196807952Y-98011653D01*
X196963962Y-98327214D01*
X197338745Y-98518020D01*
X197743551Y-98632044D01*
X198162824Y-98664902D01*
X198580451Y-98615334D01*
X198980383Y-98485243D01*
X199276038Y-98327214D01*
X199432048Y-98011653D01*
X198120000Y-96699605D01*
X196807952Y-98011653D01*
X162814000Y-98011653D01*
X162814000Y-96562824D01*
X195975098Y-96562824D01*
X196024666Y-96980451D01*
X196154757Y-97380383D01*
X196312786Y-97676038D01*
X196628347Y-97832048D01*
X197940395Y-96520000D01*
X198299605Y-96520000D01*
X199611653Y-97832048D01*
X199927214Y-97676038D01*
X200118020Y-97301255D01*
X200232044Y-96896449D01*
X200264902Y-96477176D01*
X200215334Y-96059549D01*
X200085243Y-95659617D01*
X199927214Y-95363962D01*
X199611653Y-95207952D01*
X198299605Y-96520000D01*
X197940395Y-96520000D01*
X196628347Y-95207952D01*
X196312786Y-95363962D01*
X196121980Y-95738745D01*
X196007956Y-96143551D01*
X195975098Y-96562824D01*
X162814000Y-96562824D01*
X162814000Y-95028347D01*
X196807952Y-95028347D01*
X198120000Y-96340395D01*
X199432048Y-95028347D01*
X199427922Y-95020000D01*
X208681928Y-95020000D01*
X208681928Y-98020000D01*
X208694188Y-98144482D01*
X208730498Y-98264180D01*
X208789463Y-98374494D01*
X208868815Y-98471185D01*
X208965506Y-98550537D01*
X209075820Y-98609502D01*
X209195518Y-98645812D01*
X209320000Y-98658072D01*
X212320000Y-98658072D01*
X212444482Y-98645812D01*
X212564180Y-98609502D01*
X212674494Y-98550537D01*
X212771185Y-98471185D01*
X212850537Y-98374494D01*
X212909502Y-98264180D01*
X212945812Y-98144482D01*
X212958072Y-98020000D01*
X212958072Y-95020000D01*
X212945812Y-94895518D01*
X212909502Y-94775820D01*
X212850537Y-94665506D01*
X212771185Y-94568815D01*
X212674494Y-94489463D01*
X212564180Y-94430498D01*
X212444482Y-94394188D01*
X212320000Y-94381928D01*
X209320000Y-94381928D01*
X209195518Y-94394188D01*
X209075820Y-94430498D01*
X208965506Y-94489463D01*
X208868815Y-94568815D01*
X208789463Y-94665506D01*
X208730498Y-94775820D01*
X208694188Y-94895518D01*
X208681928Y-95020000D01*
X199427922Y-95020000D01*
X199276038Y-94712786D01*
X198901255Y-94521980D01*
X198496449Y-94407956D01*
X198077176Y-94375098D01*
X197659549Y-94424666D01*
X197259617Y-94554757D01*
X196963962Y-94712786D01*
X196807952Y-95028347D01*
X162814000Y-95028347D01*
X162814000Y-85895721D01*
X173283000Y-85895721D01*
X173283000Y-86316279D01*
X173365047Y-86728756D01*
X173525988Y-87117302D01*
X173759637Y-87466983D01*
X174057017Y-87764363D01*
X174406698Y-87998012D01*
X174795244Y-88158953D01*
X175207721Y-88241000D01*
X175628279Y-88241000D01*
X176040756Y-88158953D01*
X176429302Y-87998012D01*
X176778983Y-87764363D01*
X177076363Y-87466983D01*
X177310012Y-87117302D01*
X177470953Y-86728756D01*
X177553000Y-86316279D01*
X177553000Y-85895721D01*
X177470953Y-85483244D01*
X177310012Y-85094698D01*
X177076363Y-84745017D01*
X176778983Y-84447637D01*
X176429302Y-84213988D01*
X176040756Y-84053047D01*
X175628279Y-83971000D01*
X175207721Y-83971000D01*
X174795244Y-84053047D01*
X174406698Y-84213988D01*
X174057017Y-84447637D01*
X173759637Y-84745017D01*
X173525988Y-85094698D01*
X173365047Y-85483244D01*
X173283000Y-85895721D01*
X162814000Y-85895721D01*
X162814000Y-80430000D01*
X209331928Y-80430000D01*
X209331928Y-82130000D01*
X209344188Y-82254482D01*
X209380498Y-82374180D01*
X209439463Y-82484494D01*
X209518815Y-82581185D01*
X209615506Y-82660537D01*
X209725820Y-82719502D01*
X209798380Y-82741513D01*
X209666525Y-82873368D01*
X209504010Y-83116589D01*
X209392068Y-83386842D01*
X209335000Y-83673740D01*
X209335000Y-83966260D01*
X209392068Y-84253158D01*
X209504010Y-84523411D01*
X209666525Y-84766632D01*
X209873368Y-84973475D01*
X210116589Y-85135990D01*
X210386842Y-85247932D01*
X210673740Y-85305000D01*
X210966260Y-85305000D01*
X211253158Y-85247932D01*
X211523411Y-85135990D01*
X211766632Y-84973475D01*
X211973475Y-84766632D01*
X212135990Y-84523411D01*
X212247932Y-84253158D01*
X212305000Y-83966260D01*
X212305000Y-83673740D01*
X212247932Y-83386842D01*
X212135990Y-83116589D01*
X211973475Y-82873368D01*
X211841620Y-82741513D01*
X211914180Y-82719502D01*
X212024494Y-82660537D01*
X212121185Y-82581185D01*
X212200537Y-82484494D01*
X212259502Y-82374180D01*
X212295812Y-82254482D01*
X212308072Y-82130000D01*
X212308072Y-80430000D01*
X212295812Y-80305518D01*
X212259502Y-80185820D01*
X212200537Y-80075506D01*
X212121185Y-79978815D01*
X212024494Y-79899463D01*
X211914180Y-79840498D01*
X211794482Y-79804188D01*
X211670000Y-79791928D01*
X209970000Y-79791928D01*
X209845518Y-79804188D01*
X209725820Y-79840498D01*
X209615506Y-79899463D01*
X209518815Y-79978815D01*
X209439463Y-80075506D01*
X209380498Y-80185820D01*
X209344188Y-80305518D01*
X209331928Y-80430000D01*
X162814000Y-80430000D01*
X162814000Y-61759422D01*
X162817686Y-61721999D01*
X162814000Y-61684574D01*
X162802974Y-61572622D01*
X162759402Y-61428985D01*
X162688645Y-61296608D01*
X162593422Y-61180578D01*
X162564353Y-61156722D01*
X159061284Y-57653654D01*
X159037422Y-57624578D01*
X158921392Y-57529355D01*
X158789015Y-57458598D01*
X158645378Y-57415026D01*
X158533426Y-57404000D01*
X158533423Y-57404000D01*
X158496000Y-57400314D01*
X158458577Y-57404000D01*
X139463017Y-57404000D01*
X139446000Y-57402324D01*
X139428983Y-57404000D01*
X139408574Y-57404000D01*
X139296622Y-57415026D01*
X139152985Y-57458598D01*
X139020608Y-57529355D01*
X138904578Y-57624578D01*
X138867774Y-57669424D01*
X135912398Y-60624801D01*
X135883400Y-60648599D01*
X135859602Y-60677597D01*
X135859601Y-60677598D01*
X135788426Y-60764324D01*
X135717854Y-60896354D01*
X135687580Y-60996158D01*
X135681987Y-61014598D01*
X135674398Y-61039615D01*
X135659724Y-61188600D01*
X135663401Y-61225932D01*
X135663400Y-63089659D01*
X135532865Y-63176880D01*
X135338280Y-63371465D01*
X135185395Y-63600273D01*
X135153400Y-63677515D01*
X135121405Y-63600273D01*
X134968520Y-63371465D01*
X134773935Y-63176880D01*
X134545127Y-63023995D01*
X134290890Y-62918686D01*
X134020992Y-62865000D01*
X133745808Y-62865000D01*
X133475910Y-62918686D01*
X133221673Y-63023995D01*
X132992865Y-63176880D01*
X132798280Y-63371465D01*
X132645395Y-63600273D01*
X132613400Y-63677515D01*
X132581405Y-63600273D01*
X132428520Y-63371465D01*
X132233935Y-63176880D01*
X132005127Y-63023995D01*
X131750890Y-62918686D01*
X131480992Y-62865000D01*
X131205808Y-62865000D01*
X130935910Y-62918686D01*
X130681673Y-63023995D01*
X130452865Y-63176880D01*
X130258280Y-63371465D01*
X130105395Y-63600273D01*
X130073400Y-63677515D01*
X130041405Y-63600273D01*
X129888520Y-63371465D01*
X129693935Y-63176880D01*
X129465127Y-63023995D01*
X129210890Y-62918686D01*
X128940992Y-62865000D01*
X128665808Y-62865000D01*
X128395910Y-62918686D01*
X128141673Y-63023995D01*
X127912865Y-63176880D01*
X127718280Y-63371465D01*
X127565395Y-63600273D01*
X127533400Y-63677515D01*
X127501405Y-63600273D01*
X127348520Y-63371465D01*
X127153935Y-63176880D01*
X126925127Y-63023995D01*
X126670890Y-62918686D01*
X126400992Y-62865000D01*
X126125808Y-62865000D01*
X125855910Y-62918686D01*
X125601673Y-63023995D01*
X125372865Y-63176880D01*
X125178280Y-63371465D01*
X125025395Y-63600273D01*
X124993400Y-63677515D01*
X124961405Y-63600273D01*
X124808520Y-63371465D01*
X124613935Y-63176880D01*
X124385127Y-63023995D01*
X124130890Y-62918686D01*
X123860992Y-62865000D01*
X123585808Y-62865000D01*
X123315910Y-62918686D01*
X123061673Y-63023995D01*
X122832865Y-63176880D01*
X122638280Y-63371465D01*
X122485395Y-63600273D01*
X122453400Y-63677515D01*
X122421405Y-63600273D01*
X122268520Y-63371465D01*
X122073935Y-63176880D01*
X121845127Y-63023995D01*
X121590890Y-62918686D01*
X121320992Y-62865000D01*
X121045808Y-62865000D01*
X120775910Y-62918686D01*
X120521673Y-63023995D01*
X120292865Y-63176880D01*
X120098280Y-63371465D01*
X119945395Y-63600273D01*
X119915708Y-63671943D01*
X119911036Y-63658977D01*
X119849056Y-63543020D01*
X119608965Y-63476040D01*
X118823005Y-64262000D01*
X118463795Y-64262000D01*
X117677835Y-63476040D01*
X117437744Y-63543020D01*
X117373915Y-63678760D01*
X117341405Y-63600273D01*
X117188520Y-63371465D01*
X117113490Y-63296435D01*
X117857440Y-63296435D01*
X118643400Y-64082395D01*
X119429360Y-63296435D01*
X119362380Y-63056344D01*
X119113352Y-62939244D01*
X118846265Y-62872977D01*
X118571383Y-62860090D01*
X118299267Y-62901078D01*
X118040377Y-62994364D01*
X117924420Y-63056344D01*
X117857440Y-63296435D01*
X117113490Y-63296435D01*
X116993935Y-63176880D01*
X116765127Y-63023995D01*
X116510890Y-62918686D01*
X116240992Y-62865000D01*
X115965808Y-62865000D01*
X115695910Y-62918686D01*
X115441673Y-63023995D01*
X115212865Y-63176880D01*
X115018280Y-63371465D01*
X114865395Y-63600273D01*
X114760086Y-63854510D01*
X114706400Y-64124408D01*
X89281000Y-64124408D01*
X89281000Y-48039872D01*
X91745000Y-48039872D01*
X91745000Y-48480128D01*
X91830890Y-48911925D01*
X91999369Y-49318669D01*
X92243962Y-49684729D01*
X92555271Y-49996038D01*
X92921331Y-50240631D01*
X93328075Y-50409110D01*
X93759872Y-50495000D01*
X94200128Y-50495000D01*
X94631925Y-50409110D01*
X95038669Y-50240631D01*
X95404729Y-49996038D01*
X95716038Y-49684729D01*
X95960631Y-49318669D01*
X96129110Y-48911925D01*
X96215000Y-48480128D01*
X96215000Y-48039872D01*
X218745000Y-48039872D01*
X218745000Y-48480128D01*
X218830890Y-48911925D01*
X218999369Y-49318669D01*
X219243962Y-49684729D01*
X219555271Y-49996038D01*
X219921331Y-50240631D01*
X220328075Y-50409110D01*
X220759872Y-50495000D01*
X221200128Y-50495000D01*
X221631925Y-50409110D01*
X222038669Y-50240631D01*
X222404729Y-49996038D01*
X222716038Y-49684729D01*
X222960631Y-49318669D01*
X223129110Y-48911925D01*
X223215000Y-48480128D01*
X223215000Y-48039872D01*
X223129110Y-47608075D01*
X222960631Y-47201331D01*
X222716038Y-46835271D01*
X222404729Y-46523962D01*
X222038669Y-46279369D01*
X221631925Y-46110890D01*
X221200128Y-46025000D01*
X220759872Y-46025000D01*
X220328075Y-46110890D01*
X219921331Y-46279369D01*
X219555271Y-46523962D01*
X219243962Y-46835271D01*
X218999369Y-47201331D01*
X218830890Y-47608075D01*
X218745000Y-48039872D01*
X96215000Y-48039872D01*
X96129110Y-47608075D01*
X95960631Y-47201331D01*
X95716038Y-46835271D01*
X95404729Y-46523962D01*
X95038669Y-46279369D01*
X94631925Y-46110890D01*
X94200128Y-46025000D01*
X93759872Y-46025000D01*
X93328075Y-46110890D01*
X92921331Y-46279369D01*
X92555271Y-46523962D01*
X92243962Y-46835271D01*
X91999369Y-47201331D01*
X91830890Y-47608075D01*
X91745000Y-48039872D01*
X89281000Y-48039872D01*
X89281000Y-43617118D01*
X226441000Y-43363587D01*
X226441000Y-155376409D01*
G37*
%TD.AperFunction*%
%TD*%
M02*
