%TF.GenerationSoftware,KiCad,Pcbnew,5.1.10-88a1d61d58~88~ubuntu18.04.1*%
%TF.CreationDate,2021-11-20T16:29:15+11:00*%
%TF.ProjectId,distanceSensorUltrasonicLCD,64697374-616e-4636-9553-656e736f7255,1.0*%
%TF.SameCoordinates,Original*%
%TF.FileFunction,Soldermask,Bot*%
%TF.FilePolarity,Negative*%
%FSLAX46Y46*%
G04 Gerber Fmt 4.6, Leading zero omitted, Abs format (unit mm)*
G04 Created by KiCad (PCBNEW 5.1.10-88a1d61d58~88~ubuntu18.04.1) date 2021-11-20 16:29:15*
%MOMM*%
%LPD*%
G01*
G04 APERTURE LIST*
%ADD10R,1.268000X1.268000*%
%ADD11C,1.268000*%
%ADD12R,1.800000X2.600000*%
%ADD13O,1.800000X2.600000*%
%ADD14C,3.000000*%
%ADD15C,1.530000*%
%ADD16C,3.200000*%
%ADD17C,1.524000*%
%ADD18C,1.500000*%
%ADD19R,3.000000X3.000000*%
%ADD20C,2.600000*%
%ADD21R,1.700000X1.700000*%
%ADD22O,1.700000X1.700000*%
G04 APERTURE END LIST*
D10*
%TO.C,RV1*%
X108458000Y-134620000D03*
D11*
X110998000Y-134620000D03*
X113538000Y-134620000D03*
%TD*%
D12*
%TO.C,U3*%
X105918000Y-86106000D03*
D13*
X108458000Y-86106000D03*
X110998000Y-86106000D03*
X113538000Y-86106000D03*
X116078000Y-86106000D03*
X118618000Y-86106000D03*
X121158000Y-86106000D03*
X123698000Y-86106000D03*
X126238000Y-86106000D03*
X128778000Y-86106000D03*
X131318000Y-86106000D03*
X133858000Y-86106000D03*
X136398000Y-86106000D03*
X138938000Y-86106000D03*
X141478000Y-86106000D03*
X144018000Y-86106000D03*
D14*
X100418900Y-86106000D03*
X100418900Y-117106700D03*
X175417480Y-117106700D03*
X175418000Y-86106000D03*
%TD*%
D15*
%TO.C,U2*%
X159512000Y-143764000D03*
X162052000Y-143764000D03*
X164592000Y-143764000D03*
X156972000Y-143764000D03*
%TD*%
D16*
%TO.C,REF\u002A\u002A*%
X175260000Y-149860000D03*
%TD*%
%TO.C,REF\u002A\u002A*%
X93980000Y-48260000D03*
%TD*%
%TO.C,REF\u002A\u002A*%
X220980000Y-48260000D03*
%TD*%
%TO.C,REF\u002A\u002A*%
X93980000Y-149860000D03*
%TD*%
D17*
%TO.C,FTDI1*%
X113563400Y-78232000D03*
X113563400Y-75692000D03*
X113563400Y-73152000D03*
X113563400Y-70612000D03*
X113563400Y-68072000D03*
X113563400Y-65532000D03*
X116103400Y-79502000D03*
X118643400Y-79502000D03*
X121183400Y-79502000D03*
X123723400Y-79502000D03*
X126263400Y-79502000D03*
X128803400Y-79502000D03*
X131343400Y-79502000D03*
X133883400Y-79502000D03*
X136423400Y-79502000D03*
X138963400Y-79502000D03*
X141503400Y-79502000D03*
X144043400Y-79502000D03*
X116103400Y-64262000D03*
X118643400Y-64262000D03*
X121183400Y-64262000D03*
X123723400Y-64262000D03*
X126263400Y-64262000D03*
X128803400Y-64262000D03*
X131343400Y-64262000D03*
X133883400Y-64262000D03*
X136423400Y-64262000D03*
X138963400Y-64262000D03*
X141503400Y-64262000D03*
X144043400Y-64262000D03*
D18*
X124866400Y-67183000D03*
X127406400Y-67183000D03*
X135280400Y-67183000D03*
X137820400Y-67183000D03*
%TD*%
D14*
%TO.C,BT1*%
X198120000Y-96520000D03*
D19*
X210820000Y-96520000D03*
D20*
X193370000Y-107420000D03*
X193370000Y-135420000D03*
X215570000Y-120670000D03*
%TD*%
D21*
%TO.C,SW1*%
X210820000Y-81280000D03*
D22*
X210820000Y-83820000D03*
%TD*%
M02*
