%TF.GenerationSoftware,KiCad,Pcbnew,5.1.10-88a1d61d58~88~ubuntu18.04.1*%
%TF.CreationDate,2021-11-20T16:29:15+11:00*%
%TF.ProjectId,distanceSensorUltrasonicLCD,64697374-616e-4636-9553-656e736f7255,1.0*%
%TF.SameCoordinates,Original*%
%TF.FileFunction,Legend,Bot*%
%TF.FilePolarity,Positive*%
%FSLAX46Y46*%
G04 Gerber Fmt 4.6, Leading zero omitted, Abs format (unit mm)*
G04 Created by KiCad (PCBNEW 5.1.10-88a1d61d58~88~ubuntu18.04.1) date 2021-11-20 16:29:15*
%MOMM*%
%LPD*%
G01*
G04 APERTURE LIST*
%ADD10C,0.127000*%
%ADD11C,0.150000*%
G04 APERTURE END LIST*
D10*
%TO.C,U2*%
X139282000Y-124494000D02*
X155282000Y-124494000D01*
X166282000Y-124494000D02*
X182282000Y-124494000D01*
X183282000Y-138294000D02*
X182282000Y-138294000D01*
X182282000Y-138294000D02*
X166282000Y-138294000D01*
X166282000Y-138294000D02*
X155282000Y-138294000D01*
X155282000Y-138294000D02*
X139282000Y-138294000D01*
X139282000Y-138294000D02*
X138282000Y-138294000D01*
X138282000Y-138294000D02*
X138282000Y-139494000D01*
X138282000Y-139494000D02*
X183282000Y-139494000D01*
X183282000Y-139494000D02*
X183282000Y-138294000D01*
X139282000Y-138294000D02*
X139282000Y-124494000D01*
X182282000Y-138294000D02*
X182282000Y-124494000D01*
X155282000Y-138294000D02*
X155282000Y-124494000D01*
X166282000Y-138294000D02*
X166282000Y-124494000D01*
D11*
X140334857Y-141672571D02*
X140334857Y-142886857D01*
X140263428Y-143029714D01*
X140192000Y-143101142D01*
X140049142Y-143172571D01*
X139763428Y-143172571D01*
X139620571Y-143101142D01*
X139549142Y-143029714D01*
X139477714Y-142886857D01*
X139477714Y-141672571D01*
X138834857Y-141815428D02*
X138763428Y-141744000D01*
X138620571Y-141672571D01*
X138263428Y-141672571D01*
X138120571Y-141744000D01*
X138049142Y-141815428D01*
X137977714Y-141958285D01*
X137977714Y-142101142D01*
X138049142Y-142315428D01*
X138906285Y-143172571D01*
X137977714Y-143172571D01*
X183054000Y-122344571D02*
X183054000Y-120844571D01*
X183054000Y-121558857D02*
X182196857Y-121558857D01*
X182196857Y-122344571D02*
X182196857Y-120844571D01*
X180625428Y-122201714D02*
X180696857Y-122273142D01*
X180911142Y-122344571D01*
X181054000Y-122344571D01*
X181268285Y-122273142D01*
X181411142Y-122130285D01*
X181482571Y-121987428D01*
X181554000Y-121701714D01*
X181554000Y-121487428D01*
X181482571Y-121201714D01*
X181411142Y-121058857D01*
X181268285Y-120916000D01*
X181054000Y-120844571D01*
X180911142Y-120844571D01*
X180696857Y-120916000D01*
X180625428Y-120987428D01*
X179982571Y-121773142D02*
X178839714Y-121773142D01*
X178196857Y-122273142D02*
X177982571Y-122344571D01*
X177625428Y-122344571D01*
X177482571Y-122273142D01*
X177411142Y-122201714D01*
X177339714Y-122058857D01*
X177339714Y-121916000D01*
X177411142Y-121773142D01*
X177482571Y-121701714D01*
X177625428Y-121630285D01*
X177911142Y-121558857D01*
X178054000Y-121487428D01*
X178125428Y-121416000D01*
X178196857Y-121273142D01*
X178196857Y-121130285D01*
X178125428Y-120987428D01*
X178054000Y-120916000D01*
X177911142Y-120844571D01*
X177554000Y-120844571D01*
X177339714Y-120916000D01*
X175839714Y-122344571D02*
X176339714Y-121630285D01*
X176696857Y-122344571D02*
X176696857Y-120844571D01*
X176125428Y-120844571D01*
X175982571Y-120916000D01*
X175911142Y-120987428D01*
X175839714Y-121130285D01*
X175839714Y-121344571D01*
X175911142Y-121487428D01*
X175982571Y-121558857D01*
X176125428Y-121630285D01*
X176696857Y-121630285D01*
X174911142Y-120844571D02*
X174768285Y-120844571D01*
X174625428Y-120916000D01*
X174554000Y-120987428D01*
X174482571Y-121130285D01*
X174411142Y-121416000D01*
X174411142Y-121773142D01*
X174482571Y-122058857D01*
X174554000Y-122201714D01*
X174625428Y-122273142D01*
X174768285Y-122344571D01*
X174911142Y-122344571D01*
X175054000Y-122273142D01*
X175125428Y-122201714D01*
X175196857Y-122058857D01*
X175268285Y-121773142D01*
X175268285Y-121416000D01*
X175196857Y-121130285D01*
X175125428Y-120987428D01*
X175054000Y-120916000D01*
X174911142Y-120844571D01*
X173125428Y-121344571D02*
X173125428Y-122344571D01*
X173482571Y-120773142D02*
X173839714Y-121844571D01*
X172911142Y-121844571D01*
%TD*%
M02*
