%TF.GenerationSoftware,KiCad,Pcbnew,5.1.10-88a1d61d58~88~ubuntu18.04.1*%
%TF.CreationDate,2021-11-20T16:29:15+11:00*%
%TF.ProjectId,distanceSensorUltrasonicLCD,64697374-616e-4636-9553-656e736f7255,1.0*%
%TF.SameCoordinates,Original*%
%TF.FileFunction,Legend,Top*%
%TF.FilePolarity,Positive*%
%FSLAX46Y46*%
G04 Gerber Fmt 4.6, Leading zero omitted, Abs format (unit mm)*
G04 Created by KiCad (PCBNEW 5.1.10-88a1d61d58~88~ubuntu18.04.1) date 2021-11-20 16:29:15*
%MOMM*%
%LPD*%
G01*
G04 APERTURE LIST*
%ADD10C,0.375000*%
%ADD11C,0.200000*%
%ADD12C,0.127000*%
%ADD13C,0.120000*%
%ADD14C,0.150000*%
G04 APERTURE END LIST*
D10*
X134847142Y-149154642D02*
X135061428Y-149226071D01*
X135418571Y-149226071D01*
X135561428Y-149154642D01*
X135632857Y-149083214D01*
X135704285Y-148940357D01*
X135704285Y-148797500D01*
X135632857Y-148654642D01*
X135561428Y-148583214D01*
X135418571Y-148511785D01*
X135132857Y-148440357D01*
X134990000Y-148368928D01*
X134918571Y-148297500D01*
X134847142Y-148154642D01*
X134847142Y-148011785D01*
X134918571Y-147868928D01*
X134990000Y-147797500D01*
X135132857Y-147726071D01*
X135490000Y-147726071D01*
X135704285Y-147797500D01*
X136347142Y-149226071D02*
X136347142Y-148226071D01*
X136347142Y-147726071D02*
X136275714Y-147797500D01*
X136347142Y-147868928D01*
X136418571Y-147797500D01*
X136347142Y-147726071D01*
X136347142Y-147868928D01*
X137061428Y-149226071D02*
X137061428Y-148226071D01*
X137061428Y-148368928D02*
X137132857Y-148297500D01*
X137275714Y-148226071D01*
X137490000Y-148226071D01*
X137632857Y-148297500D01*
X137704285Y-148440357D01*
X137704285Y-149226071D01*
X137704285Y-148440357D02*
X137775714Y-148297500D01*
X137918571Y-148226071D01*
X138132857Y-148226071D01*
X138275714Y-148297500D01*
X138347142Y-148440357D01*
X138347142Y-149226071D01*
X139275714Y-149226071D02*
X139132857Y-149154642D01*
X139061428Y-149083214D01*
X138990000Y-148940357D01*
X138990000Y-148511785D01*
X139061428Y-148368928D01*
X139132857Y-148297500D01*
X139275714Y-148226071D01*
X139490000Y-148226071D01*
X139632857Y-148297500D01*
X139704285Y-148368928D01*
X139775714Y-148511785D01*
X139775714Y-148940357D01*
X139704285Y-149083214D01*
X139632857Y-149154642D01*
X139490000Y-149226071D01*
X139275714Y-149226071D01*
X140418571Y-148226071D02*
X140418571Y-149226071D01*
X140418571Y-148368928D02*
X140490000Y-148297500D01*
X140632857Y-148226071D01*
X140847142Y-148226071D01*
X140990000Y-148297500D01*
X141061428Y-148440357D01*
X141061428Y-149226071D01*
X142347142Y-149154642D02*
X142204285Y-149226071D01*
X141918571Y-149226071D01*
X141775714Y-149154642D01*
X141704285Y-149011785D01*
X141704285Y-148440357D01*
X141775714Y-148297500D01*
X141918571Y-148226071D01*
X142204285Y-148226071D01*
X142347142Y-148297500D01*
X142418571Y-148440357D01*
X142418571Y-148583214D01*
X141704285Y-148726071D01*
X144204285Y-149226071D02*
X144204285Y-147726071D01*
X144704285Y-148797500D01*
X145204285Y-147726071D01*
X145204285Y-149226071D01*
X146561428Y-149226071D02*
X146561428Y-148440357D01*
X146490000Y-148297500D01*
X146347142Y-148226071D01*
X146061428Y-148226071D01*
X145918571Y-148297500D01*
X146561428Y-149154642D02*
X146418571Y-149226071D01*
X146061428Y-149226071D01*
X145918571Y-149154642D01*
X145847142Y-149011785D01*
X145847142Y-148868928D01*
X145918571Y-148726071D01*
X146061428Y-148654642D01*
X146418571Y-148654642D01*
X146561428Y-148583214D01*
X147918571Y-148226071D02*
X147918571Y-149440357D01*
X147847142Y-149583214D01*
X147775714Y-149654642D01*
X147632857Y-149726071D01*
X147418571Y-149726071D01*
X147275714Y-149654642D01*
X147918571Y-149154642D02*
X147775714Y-149226071D01*
X147490000Y-149226071D01*
X147347142Y-149154642D01*
X147275714Y-149083214D01*
X147204285Y-148940357D01*
X147204285Y-148511785D01*
X147275714Y-148368928D01*
X147347142Y-148297500D01*
X147490000Y-148226071D01*
X147775714Y-148226071D01*
X147918571Y-148297500D01*
X148632857Y-149226071D02*
X148632857Y-148226071D01*
X148632857Y-148511785D02*
X148704285Y-148368928D01*
X148775714Y-148297500D01*
X148918571Y-148226071D01*
X149061428Y-148226071D01*
X149561428Y-149226071D02*
X149561428Y-148226071D01*
X149561428Y-147726071D02*
X149490000Y-147797500D01*
X149561428Y-147868928D01*
X149632857Y-147797500D01*
X149561428Y-147726071D01*
X149561428Y-147868928D01*
X125739999Y-151851071D02*
X125739999Y-150351071D01*
X126097142Y-150351071D01*
X126311428Y-150422500D01*
X126454285Y-150565357D01*
X126525714Y-150708214D01*
X126597142Y-150993928D01*
X126597142Y-151208214D01*
X126525714Y-151493928D01*
X126454285Y-151636785D01*
X126311428Y-151779642D01*
X126097142Y-151851071D01*
X125739999Y-151851071D01*
X127239999Y-151851071D02*
X127239999Y-150851071D01*
X127239999Y-150351071D02*
X127168571Y-150422500D01*
X127239999Y-150493928D01*
X127311428Y-150422500D01*
X127239999Y-150351071D01*
X127239999Y-150493928D01*
X127882857Y-151779642D02*
X128025714Y-151851071D01*
X128311428Y-151851071D01*
X128454285Y-151779642D01*
X128525714Y-151636785D01*
X128525714Y-151565357D01*
X128454285Y-151422500D01*
X128311428Y-151351071D01*
X128097142Y-151351071D01*
X127954285Y-151279642D01*
X127882857Y-151136785D01*
X127882857Y-151065357D01*
X127954285Y-150922500D01*
X128097142Y-150851071D01*
X128311428Y-150851071D01*
X128454285Y-150922500D01*
X128954285Y-150851071D02*
X129525714Y-150851071D01*
X129168571Y-150351071D02*
X129168571Y-151636785D01*
X129239999Y-151779642D01*
X129382857Y-151851071D01*
X129525714Y-151851071D01*
X130668571Y-151851071D02*
X130668571Y-151065357D01*
X130597142Y-150922500D01*
X130454285Y-150851071D01*
X130168571Y-150851071D01*
X130025714Y-150922500D01*
X130668571Y-151779642D02*
X130525714Y-151851071D01*
X130168571Y-151851071D01*
X130025714Y-151779642D01*
X129954285Y-151636785D01*
X129954285Y-151493928D01*
X130025714Y-151351071D01*
X130168571Y-151279642D01*
X130525714Y-151279642D01*
X130668571Y-151208214D01*
X131382857Y-150851071D02*
X131382857Y-151851071D01*
X131382857Y-150993928D02*
X131454285Y-150922500D01*
X131597142Y-150851071D01*
X131811428Y-150851071D01*
X131954285Y-150922500D01*
X132025714Y-151065357D01*
X132025714Y-151851071D01*
X133382857Y-151779642D02*
X133239999Y-151851071D01*
X132954285Y-151851071D01*
X132811428Y-151779642D01*
X132739999Y-151708214D01*
X132668571Y-151565357D01*
X132668571Y-151136785D01*
X132739999Y-150993928D01*
X132811428Y-150922500D01*
X132954285Y-150851071D01*
X133239999Y-150851071D01*
X133382857Y-150922500D01*
X134597142Y-151779642D02*
X134454285Y-151851071D01*
X134168571Y-151851071D01*
X134025714Y-151779642D01*
X133954285Y-151636785D01*
X133954285Y-151065357D01*
X134025714Y-150922500D01*
X134168571Y-150851071D01*
X134454285Y-150851071D01*
X134597142Y-150922500D01*
X134668571Y-151065357D01*
X134668571Y-151208214D01*
X133954285Y-151351071D01*
X136382857Y-151779642D02*
X136597142Y-151851071D01*
X136954285Y-151851071D01*
X137097142Y-151779642D01*
X137168571Y-151708214D01*
X137240000Y-151565357D01*
X137240000Y-151422500D01*
X137168571Y-151279642D01*
X137097142Y-151208214D01*
X136954285Y-151136785D01*
X136668571Y-151065357D01*
X136525714Y-150993928D01*
X136454285Y-150922500D01*
X136382857Y-150779642D01*
X136382857Y-150636785D01*
X136454285Y-150493928D01*
X136525714Y-150422500D01*
X136668571Y-150351071D01*
X137025714Y-150351071D01*
X137240000Y-150422500D01*
X138454285Y-151779642D02*
X138311428Y-151851071D01*
X138025714Y-151851071D01*
X137882857Y-151779642D01*
X137811428Y-151636785D01*
X137811428Y-151065357D01*
X137882857Y-150922500D01*
X138025714Y-150851071D01*
X138311428Y-150851071D01*
X138454285Y-150922500D01*
X138525714Y-151065357D01*
X138525714Y-151208214D01*
X137811428Y-151351071D01*
X139168571Y-150851071D02*
X139168571Y-151851071D01*
X139168571Y-150993928D02*
X139240000Y-150922500D01*
X139382857Y-150851071D01*
X139597142Y-150851071D01*
X139740000Y-150922500D01*
X139811428Y-151065357D01*
X139811428Y-151851071D01*
X140454285Y-151779642D02*
X140597142Y-151851071D01*
X140882857Y-151851071D01*
X141025714Y-151779642D01*
X141097142Y-151636785D01*
X141097142Y-151565357D01*
X141025714Y-151422500D01*
X140882857Y-151351071D01*
X140668571Y-151351071D01*
X140525714Y-151279642D01*
X140454285Y-151136785D01*
X140454285Y-151065357D01*
X140525714Y-150922500D01*
X140668571Y-150851071D01*
X140882857Y-150851071D01*
X141025714Y-150922500D01*
X141954285Y-151851071D02*
X141811428Y-151779642D01*
X141740000Y-151708214D01*
X141668571Y-151565357D01*
X141668571Y-151136785D01*
X141740000Y-150993928D01*
X141811428Y-150922500D01*
X141954285Y-150851071D01*
X142168571Y-150851071D01*
X142311428Y-150922500D01*
X142382857Y-150993928D01*
X142454285Y-151136785D01*
X142454285Y-151565357D01*
X142382857Y-151708214D01*
X142311428Y-151779642D01*
X142168571Y-151851071D01*
X141954285Y-151851071D01*
X143097142Y-151851071D02*
X143097142Y-150851071D01*
X143097142Y-151136785D02*
X143168571Y-150993928D01*
X143240000Y-150922500D01*
X143382857Y-150851071D01*
X143525714Y-150851071D01*
X145597142Y-152422500D02*
X145525714Y-152351071D01*
X145382857Y-152136785D01*
X145311428Y-151993928D01*
X145240000Y-151779642D01*
X145168571Y-151422500D01*
X145168571Y-151136785D01*
X145240000Y-150779642D01*
X145311428Y-150565357D01*
X145382857Y-150422500D01*
X145525714Y-150208214D01*
X145597142Y-150136785D01*
X146097142Y-150493928D02*
X146168571Y-150422500D01*
X146311428Y-150351071D01*
X146668571Y-150351071D01*
X146811428Y-150422500D01*
X146882857Y-150493928D01*
X146954285Y-150636785D01*
X146954285Y-150779642D01*
X146882857Y-150993928D01*
X146025714Y-151851071D01*
X146954285Y-151851071D01*
X148240000Y-151779642D02*
X148097142Y-151851071D01*
X147811428Y-151851071D01*
X147668571Y-151779642D01*
X147597142Y-151708214D01*
X147525714Y-151565357D01*
X147525714Y-151136785D01*
X147597142Y-150993928D01*
X147668571Y-150922500D01*
X147811428Y-150851071D01*
X148097142Y-150851071D01*
X148240000Y-150922500D01*
X148882857Y-151851071D02*
X148882857Y-150851071D01*
X148882857Y-150993928D02*
X148954285Y-150922500D01*
X149097142Y-150851071D01*
X149311428Y-150851071D01*
X149454285Y-150922500D01*
X149525714Y-151065357D01*
X149525714Y-151851071D01*
X149525714Y-151065357D02*
X149597142Y-150922500D01*
X149740000Y-150851071D01*
X149954285Y-150851071D01*
X150097142Y-150922500D01*
X150168571Y-151065357D01*
X150168571Y-151851071D01*
X152025714Y-151279642D02*
X153168571Y-151279642D01*
X155668571Y-150851071D02*
X155668571Y-151851071D01*
X155311428Y-150279642D02*
X154954285Y-151351071D01*
X155882857Y-151351071D01*
X156454285Y-151851071D02*
X156454285Y-150851071D01*
X156454285Y-150993928D02*
X156525714Y-150922500D01*
X156668571Y-150851071D01*
X156882857Y-150851071D01*
X157025714Y-150922500D01*
X157097142Y-151065357D01*
X157097142Y-151851071D01*
X157097142Y-151065357D02*
X157168571Y-150922500D01*
X157311428Y-150851071D01*
X157525714Y-150851071D01*
X157668571Y-150922500D01*
X157740000Y-151065357D01*
X157740000Y-151851071D01*
X158311428Y-152422500D02*
X158382857Y-152351071D01*
X158525714Y-152136785D01*
X158597142Y-151993928D01*
X158668571Y-151779642D01*
X158740000Y-151422500D01*
X158740000Y-151136785D01*
X158668571Y-150779642D01*
X158597142Y-150565357D01*
X158525714Y-150422500D01*
X158382857Y-150208214D01*
X158311428Y-150136785D01*
D11*
%TO.C,RV1*%
X105598000Y-134620000D02*
G75*
G03*
X105598000Y-134620000I-100000J0D01*
G01*
D12*
X115763000Y-129840000D02*
X106233000Y-129840000D01*
X115763000Y-139370000D02*
X115763000Y-129840000D01*
X106233000Y-139370000D02*
X115763000Y-139370000D01*
X106233000Y-129840000D02*
X106233000Y-139370000D01*
D13*
%TO.C,U3*%
X97778000Y-119746000D02*
X178058000Y-119746000D01*
X178058000Y-119746000D02*
X178058000Y-83466000D01*
X178058000Y-83466000D02*
X98578000Y-83466000D01*
X97778000Y-83466000D02*
X97778000Y-119746000D01*
X97788000Y-83466000D02*
X98578000Y-83466000D01*
X104418000Y-83106000D02*
X107418000Y-83106000D01*
X106118000Y-94106000D02*
X169618000Y-94106000D01*
X105618280Y-108605320D02*
X105618280Y-94606000D01*
X169618660Y-109106000D02*
X106118000Y-109106000D01*
X170118000Y-94606000D02*
X170118000Y-108606000D01*
X100918000Y-89106000D02*
X173918000Y-89106000D01*
X173918000Y-89106000D02*
X173918000Y-114106000D01*
X173918000Y-114106000D02*
X100918000Y-114106000D01*
X100918000Y-114106000D02*
X100918000Y-89106000D01*
X170118000Y-94606000D02*
G75*
G03*
X169618000Y-94106000I-500000J0D01*
G01*
X169618660Y-109105700D02*
G75*
G03*
X170119040Y-108605320I0J500380D01*
G01*
X105618280Y-108605320D02*
G75*
G03*
X106118660Y-109105700I500380J0D01*
G01*
X106118660Y-94104460D02*
G75*
G03*
X105618280Y-94604840I0J-500380D01*
G01*
%TO.C,BT1*%
X189370000Y-147920000D02*
X189370000Y-93420000D01*
X189370000Y-93420000D02*
X219570000Y-93420000D01*
X219570000Y-93420000D02*
X219570000Y-147920000D01*
X219570000Y-147920000D02*
X189370000Y-147920000D01*
%TO.C,SW1*%
X209490000Y-82550000D02*
X212150000Y-82550000D01*
X209490000Y-82550000D02*
X209490000Y-85150000D01*
X209490000Y-85150000D02*
X212150000Y-85150000D01*
X212150000Y-82550000D02*
X212150000Y-85150000D01*
X212150000Y-79950000D02*
X212150000Y-81280000D01*
X210820000Y-79950000D02*
X212150000Y-79950000D01*
%TO.C,RV1*%
D14*
X108577761Y-128937380D02*
X108244428Y-128461190D01*
X108006333Y-128937380D02*
X108006333Y-127937380D01*
X108387285Y-127937380D01*
X108482523Y-127985000D01*
X108530142Y-128032619D01*
X108577761Y-128127857D01*
X108577761Y-128270714D01*
X108530142Y-128365952D01*
X108482523Y-128413571D01*
X108387285Y-128461190D01*
X108006333Y-128461190D01*
X108863476Y-127937380D02*
X109196809Y-128937380D01*
X109530142Y-127937380D01*
X110387285Y-128937380D02*
X109815857Y-128937380D01*
X110101571Y-128937380D02*
X110101571Y-127937380D01*
X110006333Y-128080238D01*
X109911095Y-128175476D01*
X109815857Y-128223095D01*
%TO.C,U3*%
X98955142Y-78985371D02*
X98955142Y-80199657D01*
X99026571Y-80342514D01*
X99098000Y-80413942D01*
X99240857Y-80485371D01*
X99526571Y-80485371D01*
X99669428Y-80413942D01*
X99740857Y-80342514D01*
X99812285Y-80199657D01*
X99812285Y-78985371D01*
X100383714Y-78985371D02*
X101312285Y-78985371D01*
X100812285Y-79556800D01*
X101026571Y-79556800D01*
X101169428Y-79628228D01*
X101240857Y-79699657D01*
X101312285Y-79842514D01*
X101312285Y-80199657D01*
X101240857Y-80342514D01*
X101169428Y-80413942D01*
X101026571Y-80485371D01*
X100598000Y-80485371D01*
X100455142Y-80413942D01*
X100383714Y-80342514D01*
%TO.C,FTDI1*%
X110916257Y-72790571D02*
X110916257Y-73290571D01*
X111701971Y-73290571D02*
X110201971Y-73290571D01*
X110201971Y-72576285D01*
X110201971Y-72219142D02*
X110201971Y-71362000D01*
X111701971Y-71790571D02*
X110201971Y-71790571D01*
X111701971Y-70862000D02*
X110201971Y-70862000D01*
X110201971Y-70504857D01*
X110273400Y-70290571D01*
X110416257Y-70147714D01*
X110559114Y-70076285D01*
X110844828Y-70004857D01*
X111059114Y-70004857D01*
X111344828Y-70076285D01*
X111487685Y-70147714D01*
X111630542Y-70290571D01*
X111701971Y-70504857D01*
X111701971Y-70862000D01*
X111701971Y-69362000D02*
X110201971Y-69362000D01*
X111701971Y-67862000D02*
X111701971Y-68719142D01*
X111701971Y-68290571D02*
X110201971Y-68290571D01*
X110416257Y-68433428D01*
X110559114Y-68576285D01*
X110630542Y-68719142D01*
X119674857Y-60702000D02*
X120389142Y-60702000D01*
X119532000Y-61130571D02*
X120032000Y-59630571D01*
X120532000Y-61130571D01*
X121889142Y-61130571D02*
X121389142Y-60416285D01*
X121032000Y-61130571D02*
X121032000Y-59630571D01*
X121603428Y-59630571D01*
X121746285Y-59702000D01*
X121817714Y-59773428D01*
X121889142Y-59916285D01*
X121889142Y-60130571D01*
X121817714Y-60273428D01*
X121746285Y-60344857D01*
X121603428Y-60416285D01*
X121032000Y-60416285D01*
X122532000Y-61130571D02*
X122532000Y-59630571D01*
X122889142Y-59630571D01*
X123103428Y-59702000D01*
X123246285Y-59844857D01*
X123317714Y-59987714D01*
X123389142Y-60273428D01*
X123389142Y-60487714D01*
X123317714Y-60773428D01*
X123246285Y-60916285D01*
X123103428Y-61059142D01*
X122889142Y-61130571D01*
X122532000Y-61130571D01*
X124032000Y-59630571D02*
X124032000Y-60844857D01*
X124103428Y-60987714D01*
X124174857Y-61059142D01*
X124317714Y-61130571D01*
X124603428Y-61130571D01*
X124746285Y-61059142D01*
X124817714Y-60987714D01*
X124889142Y-60844857D01*
X124889142Y-59630571D01*
X125603428Y-61130571D02*
X125603428Y-59630571D01*
X126174857Y-59630571D01*
X126317714Y-59702000D01*
X126389142Y-59773428D01*
X126460571Y-59916285D01*
X126460571Y-60130571D01*
X126389142Y-60273428D01*
X126317714Y-60344857D01*
X126174857Y-60416285D01*
X125603428Y-60416285D01*
X127960571Y-61130571D02*
X127460571Y-60416285D01*
X127103428Y-61130571D02*
X127103428Y-59630571D01*
X127674857Y-59630571D01*
X127817714Y-59702000D01*
X127889142Y-59773428D01*
X127960571Y-59916285D01*
X127960571Y-60130571D01*
X127889142Y-60273428D01*
X127817714Y-60344857D01*
X127674857Y-60416285D01*
X127103428Y-60416285D01*
X128889142Y-59630571D02*
X129174857Y-59630571D01*
X129317714Y-59702000D01*
X129460571Y-59844857D01*
X129532000Y-60130571D01*
X129532000Y-60630571D01*
X129460571Y-60916285D01*
X129317714Y-61059142D01*
X129174857Y-61130571D01*
X128889142Y-61130571D01*
X128746285Y-61059142D01*
X128603428Y-60916285D01*
X128532000Y-60630571D01*
X128532000Y-60130571D01*
X128603428Y-59844857D01*
X128746285Y-59702000D01*
X128889142Y-59630571D01*
X130174857Y-61130571D02*
X130174857Y-59630571D01*
X130674857Y-60702000D01*
X131174857Y-59630571D01*
X131174857Y-61130571D01*
X131889142Y-61130571D02*
X131889142Y-59630571D01*
X132603428Y-61130571D02*
X132603428Y-59630571D01*
X133460571Y-61130571D01*
X133460571Y-59630571D01*
X134174857Y-61130571D02*
X134174857Y-59630571D01*
X136032000Y-59630571D02*
X136032000Y-60844857D01*
X136103428Y-60987714D01*
X136174857Y-61059142D01*
X136317714Y-61130571D01*
X136603428Y-61130571D01*
X136746285Y-61059142D01*
X136817714Y-60987714D01*
X136889142Y-60844857D01*
X136889142Y-59630571D01*
X138389142Y-61130571D02*
X137532000Y-61130571D01*
X137960571Y-61130571D02*
X137960571Y-59630571D01*
X137817714Y-59844857D01*
X137674857Y-59987714D01*
X137532000Y-60059142D01*
%TO.C,BT1*%
X189321428Y-88792857D02*
X189535714Y-88864285D01*
X189607142Y-88935714D01*
X189678571Y-89078571D01*
X189678571Y-89292857D01*
X189607142Y-89435714D01*
X189535714Y-89507142D01*
X189392857Y-89578571D01*
X188821428Y-89578571D01*
X188821428Y-88078571D01*
X189321428Y-88078571D01*
X189464285Y-88150000D01*
X189535714Y-88221428D01*
X189607142Y-88364285D01*
X189607142Y-88507142D01*
X189535714Y-88650000D01*
X189464285Y-88721428D01*
X189321428Y-88792857D01*
X188821428Y-88792857D01*
X190107142Y-88078571D02*
X190964285Y-88078571D01*
X190535714Y-89578571D02*
X190535714Y-88078571D01*
X192250000Y-89578571D02*
X191392857Y-89578571D01*
X191821428Y-89578571D02*
X191821428Y-88078571D01*
X191678571Y-88292857D01*
X191535714Y-88435714D01*
X191392857Y-88507142D01*
X194158095Y-89983333D02*
X194096190Y-89921428D01*
X193972380Y-89735714D01*
X193910476Y-89611904D01*
X193848571Y-89426190D01*
X193786666Y-89116666D01*
X193786666Y-88869047D01*
X193848571Y-88559523D01*
X193910476Y-88373809D01*
X193972380Y-88250000D01*
X194096190Y-88064285D01*
X194158095Y-88002380D01*
X195272380Y-88188095D02*
X194653333Y-88188095D01*
X194591428Y-88807142D01*
X194653333Y-88745238D01*
X194777142Y-88683333D01*
X195086666Y-88683333D01*
X195210476Y-88745238D01*
X195272380Y-88807142D01*
X195334285Y-88930952D01*
X195334285Y-89240476D01*
X195272380Y-89364285D01*
X195210476Y-89426190D01*
X195086666Y-89488095D01*
X194777142Y-89488095D01*
X194653333Y-89426190D01*
X194591428Y-89364285D01*
X195705714Y-88188095D02*
X196139047Y-89488095D01*
X196572380Y-88188095D01*
X197005714Y-88992857D02*
X197996190Y-88992857D01*
X199296190Y-89488095D02*
X198553333Y-89488095D01*
X198924761Y-89488095D02*
X198924761Y-88188095D01*
X198800952Y-88373809D01*
X198677142Y-88497619D01*
X198553333Y-88559523D01*
X199791428Y-88311904D02*
X199853333Y-88250000D01*
X199977142Y-88188095D01*
X200286666Y-88188095D01*
X200410476Y-88250000D01*
X200472380Y-88311904D01*
X200534285Y-88435714D01*
X200534285Y-88559523D01*
X200472380Y-88745238D01*
X199729523Y-89488095D01*
X200534285Y-89488095D01*
X200905714Y-88188095D02*
X201339047Y-89488095D01*
X201772380Y-88188095D01*
X202081904Y-89983333D02*
X202143809Y-89921428D01*
X202267619Y-89735714D01*
X202329523Y-89611904D01*
X202391428Y-89426190D01*
X202453333Y-89116666D01*
X202453333Y-88869047D01*
X202391428Y-88559523D01*
X202329523Y-88373809D01*
X202267619Y-88250000D01*
X202143809Y-88064285D01*
X202081904Y-88002380D01*
%TO.C,SW1*%
X209486666Y-78914761D02*
X209629523Y-78962380D01*
X209867619Y-78962380D01*
X209962857Y-78914761D01*
X210010476Y-78867142D01*
X210058095Y-78771904D01*
X210058095Y-78676666D01*
X210010476Y-78581428D01*
X209962857Y-78533809D01*
X209867619Y-78486190D01*
X209677142Y-78438571D01*
X209581904Y-78390952D01*
X209534285Y-78343333D01*
X209486666Y-78248095D01*
X209486666Y-78152857D01*
X209534285Y-78057619D01*
X209581904Y-78010000D01*
X209677142Y-77962380D01*
X209915238Y-77962380D01*
X210058095Y-78010000D01*
X210391428Y-77962380D02*
X210629523Y-78962380D01*
X210820000Y-78248095D01*
X211010476Y-78962380D01*
X211248571Y-77962380D01*
X212153333Y-78962380D02*
X211581904Y-78962380D01*
X211867619Y-78962380D02*
X211867619Y-77962380D01*
X211772380Y-78105238D01*
X211677142Y-78200476D01*
X211581904Y-78248095D01*
X207028190Y-84696571D02*
X207090095Y-84510857D01*
X207090095Y-84201333D01*
X207028190Y-84077523D01*
X206966285Y-84015619D01*
X206842476Y-83953714D01*
X206718666Y-83953714D01*
X206594857Y-84015619D01*
X206532952Y-84077523D01*
X206471047Y-84201333D01*
X206409142Y-84448952D01*
X206347238Y-84572761D01*
X206285333Y-84634666D01*
X206161523Y-84696571D01*
X206037714Y-84696571D01*
X205913904Y-84634666D01*
X205852000Y-84572761D01*
X205790095Y-84448952D01*
X205790095Y-84139428D01*
X205852000Y-83953714D01*
X205790095Y-83520380D02*
X207090095Y-83210857D01*
X206161523Y-82963238D01*
X207090095Y-82715619D01*
X205790095Y-82406095D01*
X207090095Y-81229904D02*
X207090095Y-81972761D01*
X207090095Y-81601333D02*
X205790095Y-81601333D01*
X205975809Y-81725142D01*
X206099619Y-81848952D01*
X206161523Y-81972761D01*
X207090095Y-78939428D02*
X206471047Y-79372761D01*
X207090095Y-79682285D02*
X205790095Y-79682285D01*
X205790095Y-79187047D01*
X205852000Y-79063238D01*
X205913904Y-79001333D01*
X206037714Y-78939428D01*
X206223428Y-78939428D01*
X206347238Y-79001333D01*
X206409142Y-79063238D01*
X206471047Y-79187047D01*
X206471047Y-79682285D01*
X206718666Y-78444190D02*
X206718666Y-77825142D01*
X207090095Y-78568000D02*
X205790095Y-78134666D01*
X207090095Y-77701333D01*
X205790095Y-77391809D02*
X207090095Y-77082285D01*
X206161523Y-76834666D01*
X207090095Y-76587047D01*
X205790095Y-76277523D01*
%TD*%
M02*
