M48
; DRILL file {KiCad 5.1.10-88a1d61d58~88~ubuntu18.04.1} date Sat Nov 20 16:29:23 2021
; FORMAT={-:-/ absolute / inch / decimal}
; #@! TF.CreationDate,2021-11-20T16:29:23+11:00
; #@! TF.GenerationSoftware,Kicad,Pcbnew,5.1.10-88a1d61d58~88~ubuntu18.04.1
; #@! TF.FileFunction,Plated,1,2,PTH
FMAT,2
INCH
T1C0.0236
T2C0.0299
T3C0.0300
T4C0.0394
T5C0.0402
T6C0.0472
T7C0.0945
T8C0.0984
%
G90
G05
T1
X4.916Y-2.645
X5.016Y-2.645
X5.326Y-2.645
X5.426Y-2.645
T2
X4.27Y-5.3
X4.37Y-5.3
X4.47Y-5.3
T3
X4.471Y-2.58
X4.471Y-2.68
X4.471Y-2.78
X4.471Y-2.88
X4.471Y-2.98
X4.471Y-3.08
X4.571Y-2.53
X4.571Y-3.13
X4.671Y-2.53
X4.671Y-3.13
X4.771Y-2.53
X4.771Y-3.13
X4.871Y-2.53
X4.871Y-3.13
X4.971Y-2.53
X4.971Y-3.13
X5.071Y-2.53
X5.071Y-3.13
X5.171Y-2.53
X5.171Y-3.13
X5.271Y-2.53
X5.271Y-3.13
X5.371Y-2.53
X5.371Y-3.13
X5.471Y-2.53
X5.471Y-3.13
X5.571Y-2.53
X5.571Y-3.13
X5.671Y-2.53
X5.671Y-3.13
T4
X8.3Y-3.2
X8.3Y-3.3
T5
X6.18Y-5.66
X6.28Y-5.66
X6.38Y-5.66
X6.48Y-5.66
T6
X4.17Y-3.39
X4.27Y-3.39
X4.37Y-3.39
X4.47Y-3.39
X4.57Y-3.39
X4.67Y-3.39
X4.77Y-3.39
X4.87Y-3.39
X4.97Y-3.39
X5.07Y-3.39
X5.17Y-3.39
X5.27Y-3.39
X5.37Y-3.39
X5.47Y-3.39
X5.57Y-3.39
X5.67Y-3.39
T7
X7.8Y-3.8
X8.3Y-3.8
T8
X3.9535Y-3.39
X3.9535Y-4.6105
X6.9062Y-4.6105
X6.9062Y-3.39
T0
M30
